<svg xmlns="http://www.w3.org/2000/svg" xmlns:xlink="http://www.w3.org/1999/xlink"  zoomAndPan="magnify" viewBox="0 0 600 599.999999" preserveAspectRatio="xMidYMid meet" version="1.2"><defs><clipPath id="9f5fbf646c"><path d="M 0 104 L 600 104 L 600 496.839844 L 0 496.839844 Z M 0 104 "/></clipPath></defs><g id="3b2c09e674"><g clip-rule="nonzero" clip-path="url(#9f5fbf646c)"><path style=" stroke:none;fill-rule:nonzero;fill:#ffffff;fill-opacity:1;" d="M 565.539062 104.109375 L 33.859375 104.109375 C 32.746094 104.109375 31.632812 104.167969 30.519531 104.277344 C 29.410156 104.386719 28.308594 104.550781 27.214844 104.769531 C 26.121094 104.988281 25.039062 105.261719 23.972656 105.585938 C 22.90625 105.910156 21.855469 106.285156 20.824219 106.710938 C 19.792969 107.140625 18.789062 107.617188 17.804688 108.144531 C 16.820312 108.671875 15.863281 109.242188 14.9375 109.863281 C 14.007812 110.484375 13.113281 111.148438 12.25 111.855469 C 11.390625 112.5625 10.5625 113.3125 9.773438 114.101562 C 8.984375 114.890625 8.238281 115.714844 7.527344 116.578125 C 6.820312 117.441406 6.15625 118.335938 5.535156 119.261719 C 4.917969 120.191406 4.34375 121.144531 3.816406 122.128906 C 3.289062 123.113281 2.8125 124.121094 2.386719 125.152344 C 1.957031 126.183594 1.582031 127.230469 1.257812 128.296875 C 0.933594 129.367188 0.664062 130.445312 0.445312 131.542969 C 0.226562 132.636719 0.0625 133.738281 -0.0507812 134.847656 C -0.160156 135.957031 -0.214844 137.070312 -0.21875 138.1875 L -0.21875 462.25 C -0.214844 463.367188 -0.160156 464.476562 -0.0507812 465.589844 C 0.0625 466.699219 0.226562 467.800781 0.445312 468.894531 C 0.664062 469.988281 0.933594 471.070312 1.257812 472.136719 C 1.582031 473.207031 1.957031 474.253906 2.386719 475.285156 C 2.8125 476.316406 3.289062 477.324219 3.816406 478.304688 C 4.34375 479.289062 4.917969 480.246094 5.535156 481.171875 C 6.15625 482.101562 6.820312 482.996094 7.527344 483.859375 C 8.238281 484.722656 8.984375 485.546875 9.773438 486.335938 C 10.5625 487.125 11.390625 487.871094 12.25 488.582031 C 13.113281 489.289062 14.007812 489.953125 14.9375 490.574219 C 15.863281 491.191406 16.820312 491.765625 17.804688 492.292969 C 18.789062 492.820312 19.792969 493.296875 20.824219 493.722656 C 21.855469 494.152344 22.90625 494.527344 23.972656 494.851562 C 25.039062 495.175781 26.121094 495.449219 27.214844 495.667969 C 28.308594 495.886719 29.410156 496.050781 30.519531 496.160156 C 31.632812 496.269531 32.746094 496.324219 33.859375 496.328125 L 565.539062 496.328125 C 566.65625 496.324219 567.769531 496.269531 568.878906 496.160156 C 569.992188 496.050781 571.09375 495.886719 572.1875 495.667969 C 573.28125 495.449219 574.363281 495.175781 575.429688 494.851562 C 576.496094 494.527344 577.546875 494.152344 578.578125 493.726562 C 579.609375 493.296875 580.617188 492.820312 581.601562 492.292969 C 582.582031 491.769531 583.539062 491.195312 584.46875 490.574219 C 585.394531 489.953125 586.289062 489.289062 587.152344 488.582031 C 588.015625 487.875 588.839844 487.125 589.628906 486.335938 C 590.417969 485.546875 591.167969 484.722656 591.875 483.859375 C 592.582031 482.996094 593.246094 482.101562 593.867188 481.175781 C 594.488281 480.246094 595.0625 479.292969 595.589844 478.308594 C 596.113281 477.324219 596.589844 476.316406 597.019531 475.285156 C 597.445312 474.253906 597.824219 473.207031 598.148438 472.136719 C 598.472656 471.070312 598.742188 469.988281 598.960938 468.894531 C 599.179688 467.800781 599.34375 466.699219 599.457031 465.589844 C 599.566406 464.480469 599.621094 463.367188 599.625 462.25 L 599.625 138.1875 C 599.621094 137.070312 599.566406 135.957031 599.457031 134.847656 C 599.34375 133.738281 599.179688 132.632812 598.960938 131.539062 C 598.742188 130.445312 598.472656 129.367188 598.148438 128.296875 C 597.824219 127.230469 597.445312 126.179688 597.019531 125.148438 C 596.589844 124.121094 596.113281 123.113281 595.589844 122.128906 C 595.0625 121.144531 594.488281 120.1875 593.867188 119.261719 C 593.246094 118.332031 592.582031 117.4375 591.875 116.574219 C 591.167969 115.714844 590.417969 114.886719 589.628906 114.097656 C 588.839844 113.308594 588.015625 112.5625 587.152344 111.855469 C 586.289062 111.144531 585.394531 110.480469 584.46875 109.863281 C 583.539062 109.242188 582.582031 108.667969 581.601562 108.140625 C 580.617188 107.617188 579.609375 107.140625 578.578125 106.710938 C 577.546875 106.285156 576.496094 105.90625 575.429688 105.582031 C 574.363281 105.257812 573.28125 104.988281 572.1875 104.769531 C 571.09375 104.550781 569.992188 104.386719 568.878906 104.277344 C 567.769531 104.167969 566.65625 104.109375 565.539062 104.109375 Z M 393.972656 300.21875 L 581.160156 133.359375 C 581.679688 134.925781 581.949219 136.535156 581.96875 138.1875 L 581.96875 462.25 C 581.949219 463.902344 581.679688 465.511719 581.160156 467.078125 Z M 565.519531 121.769531 C 566.144531 121.796875 566.769531 121.855469 567.386719 121.957031 L 310.570312 350.871094 C 309.828125 351.535156 309.027344 352.125 308.175781 352.644531 C 307.324219 353.164062 306.429688 353.601562 305.496094 353.957031 C 304.566406 354.3125 303.609375 354.582031 302.625 354.761719 C 301.644531 354.941406 300.65625 355.03125 299.65625 355.03125 C 298.660156 355.03125 297.667969 354.941406 296.6875 354.761719 C 295.707031 354.582031 294.75 354.3125 293.816406 353.957031 C 292.886719 353.601562 291.992188 353.164062 291.140625 352.644531 C 290.289062 352.125 289.488281 351.535156 288.746094 350.871094 L 32 121.957031 C 32.617188 121.855469 33.234375 121.796875 33.859375 121.769531 Z M 18.25 467.078125 C 17.734375 465.511719 17.464844 463.902344 17.441406 462.25 L 17.441406 138.1875 C 17.464844 136.535156 17.734375 134.925781 18.25 133.359375 L 205.433594 300.21875 Z M 33.859375 478.683594 C 33.234375 478.65625 32.617188 478.59375 32 478.496094 L 218.683594 312.058594 L 277.042969 364.054688 C 277.816406 364.742188 278.617188 365.394531 279.445312 366.007812 C 280.277344 366.625 281.136719 367.199219 282.019531 367.738281 C 282.902344 368.273438 283.808594 368.769531 284.738281 369.222656 C 285.664062 369.679688 286.613281 370.089844 287.578125 370.457031 C 288.542969 370.828125 289.523438 371.148438 290.519531 371.429688 C 291.515625 371.707031 292.523438 371.941406 293.539062 372.128906 C 294.554688 372.316406 295.578125 372.457031 296.609375 372.550781 C 297.636719 372.644531 298.667969 372.691406 299.703125 372.691406 C 300.738281 372.691406 301.769531 372.644531 302.796875 372.550781 C 303.828125 372.457031 304.851562 372.316406 305.867188 372.128906 C 306.882812 371.941406 307.890625 371.707031 308.886719 371.429688 C 309.882812 371.148438 310.863281 370.828125 311.828125 370.457031 C 312.792969 370.089844 313.742188 369.679688 314.667969 369.222656 C 315.597656 368.769531 316.503906 368.273438 317.386719 367.738281 C 318.269531 367.199219 319.128906 366.625 319.957031 366.007812 C 320.789062 365.394531 321.589844 364.742188 322.363281 364.054688 L 380.707031 312.042969 L 567.390625 478.480469 C 566.773438 478.578125 566.152344 478.640625 565.527344 478.667969 Z M 33.859375 478.683594 "/></g></g></svg>