<svg width="100%" height="100%" xmlns="http://www.w3.org/2000/svg" viewBox="0 0 100 100">
  <defs>
    <!-- Desenho de folha -->
    <path id="leaf" d="M 10 0 C 10 0 0 0 0 10 C 0 10 0 15 5 20 C 10 25 10 30 10 30 C 10 30 5 30 0 35 C -5 40 -5 45 0 50 C 5 55 5 60 0 65 C -5 70 -5 75 0 80 C 5 85 10 85 10 85 C 10 85 10 90 10 90 C 10 90 15 95 20 90 C 25 85 25 85 30 85 C 35 85 40 85 45 90 C 50 95 55 95 60 95 C 65 95 70 95 75 90 C 80 85 85 85 90 90 C 95 95 100 95 100 95 C 100 95 95 95 90 90 C 85 85 85 85 85 85 C 85 85 85 85 85 85 C 85 85 90 85 95 90 C 100 95 100 95 100 95 C 100 95 100 90 100 90 C 100 90 100 85 95 85 C 90 85 85 85 85 85 C 85 85 85 85 85 85 C 85 85 85 85 90 90 C 95 95 100 95 100 95 C 100 95 100 90 100 90 C 100 90 100 85 95 85 C 90 85 85 85 85 85 C 85 85 85 85 85 85 C 85 85 85 85 90 90 C 95 95 100 95 100 95 C 100 95 100 90 100 90 C 100 90 100 85 95 85 C 90 85 85 85 85 85 C 85 85 85 85 85 85 C 85 85 85 85 90 90 C 95 95 100 95 100 95 C 100 95 100 90 100 90 C 100 90 100 85 95 85 C 90 85 85 85 85 85 C 85 85 85 85 85 85 C 85 85 85 85 90 90 C 95 95 100 95 100 95 C 100 95 100 90 100 90 C 100 90 100 85 95 85 C 90 85 85 85 85 85 C 85 85 85 85 85 85 C 85 85 85 85 90 90 C 95 95 100 95 100 95 C 100 95 100 90 100 90 C 100 90 100 85 95 85 C 90 85 85 85 85 85 C 85 85 85 85 85 85 C 85 85 90 85 95 90 C 100 95 100 95 100 95 C 100 95 100 90 100 90 C 100 90 100 85 95 85 C 90 85 85 85 85 85 Z"/>
  </defs>

  <!-- Container para o botão de clique -->
  <rect x="0" y="0" width="100%" height="100%" fill="transparent" onclick="handleNavLinkClick()"/>

  <!-- Container para as folhas -->
  <g id="leaves">
    <!-- Coloque as folhas aleatoriamente na tela -->
    <use href="#leaf" x="5%" y="5%" class="leaf"/>
    <use href="#leaf" x="20%" y="10%" class="leaf"/>
    <use href="#leaf" x="40%" y="15%" class="leaf"/>
    <use href="#leaf" x="60%" y="20%" class="leaf"/>
    <use href="#leaf" x="75%" y="25%" class="leaf"/>
    <use href="#leaf" x="90%" y="30%" class="leaf"/>
    
    <!-- Duplicar e traduzir folhas para cobrir toda a tela -->
    <g transform="translate(0, 100)">
      <use href="#leaf" class="leaf"/>
    </g>
    <g transform="translate(0, 200)">
      <use href="#leaf" class="leaf"/>
    </g>
    <g transform="translate(0, 300)">
      <use href="#leaf" class="leaf"/>
    </g>
    <!-- Adicione mais traduções conforme necessário para cobrir toda a tela -->
  </g>

  <script>
    function handleNavLinkClick() {
      var leavesContainer = document.getElementById('leaves');
      leavesContainer.classList.add('active');
    }
  </script>
</svg>
