<svg xmlns="http://www.w3.org/2000/svg" xmlns:xlink="http://www.w3.org/1999/xlink" zoomAndPan="magnify" viewBox="0 0 30 30.000001" preserveAspectRatio="xMidYMid meet" version="1.0">
  <defs>
    <clipPath id="74be879a11">
      <path d="M 5.3125 4.730469 L 24.90625 4.730469 L 24.90625 24.324219 L 5.3125 24.324219 Z M 5.3125 4.730469 " clip-rule="nonzero"/>
    </clipPath>
    <clipPath id="0191e8db8a">
      <path d="M 3.386719 2.902344 L 26.613281 2.902344 L 26.613281 26.128906 L 3.386719 26.128906 Z M 3.386719 2.902344 " clip-rule="nonzero"/>
    </clipPath>
  </defs>
  <g clip-path="url(#74be879a11)">
    <path fill="#ffffff" d="M 19.363281 24.324219 C 19.230469 24.324219 19.105469 24.300781 18.988281 24.253906 C 18.867188 24.203125 18.761719 24.132812 18.667969 24.042969 C 18.578125 23.949219 18.507812 23.847656 18.457031 23.726562 C 18.40625 23.609375 18.382812 23.484375 18.382812 23.355469 L 18.382812 20.832031 C 18.445312 20.21875 18.269531 19.683594 17.851562 19.222656 C 17.582031 18.933594 17.515625 18.601562 17.652344 18.234375 C 17.789062 17.863281 18.054688 17.652344 18.449219 17.601562 C 20.839844 17.320312 23.046875 16.566406 23.046875 12.460938 C 23.046875 11.679688 22.828125 10.960938 22.390625 10.308594 C 21.976562 9.695312 21.84375 9.03125 21.988281 8.308594 C 22.078125 7.851562 22.078125 7.398438 21.988281 6.941406 C 21.25 7.1875 20.566406 7.539062 19.941406 8 C 19.6875 8.175781 19.414062 8.222656 19.117188 8.144531 C 17.3125 7.640625 15.511719 7.640625 13.707031 8.144531 C 13.410156 8.222656 13.136719 8.175781 12.886719 8 C 12.253906 7.535156 11.566406 7.183594 10.816406 6.941406 C 10.722656 7.398438 10.722656 7.851562 10.816406 8.308594 C 10.953125 9.039062 10.8125 9.710938 10.398438 10.328125 C 9.960938 10.984375 9.742188 11.703125 9.738281 12.492188 C 9.738281 16.265625 11.582031 17.273438 14.34375 17.621094 C 14.746094 17.671875 15.015625 17.886719 15.148438 18.261719 C 15.273438 18.625 15.207031 18.949219 14.941406 19.234375 C 14.539062 19.660156 14.359375 20.164062 14.402344 20.746094 L 14.402344 23.355469 C 14.402344 23.484375 14.378906 23.609375 14.328125 23.726562 C 14.28125 23.847656 14.207031 23.949219 14.117188 24.042969 C 14.023438 24.132812 13.917969 24.203125 13.800781 24.253906 C 13.679688 24.300781 13.554688 24.324219 13.425781 24.324219 C 13.292969 24.324219 13.167969 24.300781 13.050781 24.253906 C 12.929688 24.203125 12.824219 24.132812 12.730469 24.042969 C 12.640625 23.949219 12.570312 23.847656 12.519531 23.726562 C 12.46875 23.609375 12.445312 23.484375 12.445312 23.355469 L 12.445312 22.804688 C 11.464844 22.914062 10.519531 22.789062 9.605469 22.429688 C 8.691406 22.070312 7.914062 21.519531 7.28125 20.773438 C 6.957031 20.417969 6.578125 20.136719 6.144531 19.921875 C 6.019531 19.890625 5.902344 19.835938 5.800781 19.757812 C 5.695312 19.679688 5.609375 19.585938 5.542969 19.472656 C 5.476562 19.363281 5.433594 19.246094 5.417969 19.117188 C 5.398438 18.988281 5.40625 18.863281 5.4375 18.738281 C 5.472656 18.613281 5.527344 18.5 5.605469 18.394531 C 5.683594 18.292969 5.777344 18.210938 5.890625 18.144531 C 6.003906 18.078125 6.121094 18.035156 6.25 18.019531 C 6.378906 18 6.507812 18.007812 6.632812 18.039062 C 7.398438 18.316406 8.054688 18.753906 8.59375 19.359375 C 9.574219 20.328125 10.554688 21.183594 12.414062 20.832031 C 12.382812 20.308594 12.457031 19.796875 12.640625 19.300781 C 10.621094 18.796875 7.742188 17.359375 7.742188 12.511719 C 7.738281 11.335938 8.066406 10.257812 8.722656 9.277344 C 8.84375 9.09375 8.886719 8.894531 8.847656 8.679688 C 8.644531 7.609375 8.753906 6.570312 9.171875 5.5625 C 9.289062 5.285156 9.496094 5.097656 9.789062 5.011719 C 10.121094 4.914062 11.316406 4.71875 13.582031 6.175781 C 15.4375 5.730469 17.296875 5.730469 19.15625 6.175781 C 21.417969 4.71875 22.613281 4.902344 22.9375 5.011719 C 23.230469 5.097656 23.4375 5.285156 23.554688 5.5625 C 23.972656 6.574219 24.082031 7.613281 23.878906 8.6875 C 23.835938 8.886719 23.871094 9.070312 23.988281 9.242188 C 24.644531 10.222656 24.972656 11.300781 24.964844 12.480469 C 24.964844 17.398438 22.105469 18.824219 20.066406 19.273438 C 20.25 19.796875 20.320312 20.335938 20.28125 20.890625 L 20.28125 23.355469 C 20.285156 23.613281 20.195312 23.835938 20.015625 24.023438 C 19.839844 24.210938 19.621094 24.3125 19.363281 24.324219 Z M 19.363281 24.324219 " fill-opacity="1" fill-rule="nonzero"/>
  </g>
  <g clip-path="url(#0191e8db8a)">
    <path fill="#ffffff" d="M 26.617188 7.332031 C 26.617188 4.886719 24.632812 2.902344 22.183594 2.902344 L 7.820312 2.902344 C 5.371094 2.902344 3.386719 4.886719 3.386719 7.332031 L 3.386719 21.699219 C 3.386719 24.144531 5.371094 26.128906 7.820312 26.128906 C 7.820312 26.128906 22.183594 26.128906 22.183594 26.128906 C 24.632812 26.128906 26.617188 24.144531 26.617188 21.699219 Z M 26.386719 7.332031 C 26.386719 5.011719 24.503906 3.132812 22.183594 3.132812 L 7.820312 3.132812 C 5.5 3.132812 3.617188 5.011719 3.617188 7.332031 L 3.617188 21.699219 C 3.617188 24.019531 5.5 25.902344 7.820312 25.902344 L 22.183594 25.902344 C 24.503906 25.902344 26.386719 24.019531 26.386719 21.699219 Z M 26.386719 7.332031 " fill-opacity="1" fill-rule="evenodd"/>
  </g>
</svg>
