<svg xmlns="http://www.w3.org/2000/svg" xmlns:xlink="http://www.w3.org/1999/xlink"  zoomAndPan="magnify" viewBox="0 0 30 30.000001"  preserveAspectRatio="xMidYMid meet" version="1.0"><defs><clipPath id="b08968a59e"><path d="M 0.484375 0.328125 L 29.515625 0.328125 L 29.515625 28.632812 L 0.484375 28.632812 Z M 0.484375 0.328125 " clip-rule="nonzero"/></clipPath><clipPath id="326c10c990"><path d="M 0.484375 0.328125 L 29.515625 0.328125 L 29.515625 28.632812 L 0.484375 28.632812 Z M 0.484375 0.328125 " clip-rule="nonzero"/></clipPath></defs><g clip-path="url(#b08968a59e)"><path fill="#ffde59" d="M 1.15625 18.027344 L 1.644531 16.703125 C 1.652344 16.683594 1.664062 16.675781 1.675781 16.671875 C 1.683594 16.667969 1.699219 16.664062 1.714844 16.667969 L 2.59375 16.992188 C 2.734375 17.046875 2.890625 16.996094 2.976562 16.871094 C 3.210938 16.527344 3.492188 16.222656 3.816406 15.960938 C 3.929688 15.867188 3.96875 15.707031 3.90625 15.574219 L 3.515625 14.722656 C 3.5 14.695312 3.511719 14.664062 3.539062 14.648438 L 4.824219 14.058594 C 4.851562 14.046875 4.882812 14.058594 4.894531 14.085938 L 5.289062 14.9375 C 5.351562 15.070312 5.496094 15.144531 5.644531 15.117188 C 6.050781 15.039062 6.464844 15.023438 6.878906 15.070312 C 6.914062 15.074219 6.949219 15.070312 6.980469 15.0625 C 6.941406 15.355469 6.921875 15.652344 6.921875 15.957031 C 6.921875 16 6.921875 16.042969 6.921875 16.085938 C 6.308594 15.988281 5.671875 16.074219 5.097656 16.339844 C 4.332031 16.695312 3.746094 17.328125 3.453125 18.121094 C 3.160156 18.914062 3.195312 19.773438 3.550781 20.542969 C 3.90625 21.308594 4.539062 21.894531 5.332031 22.1875 C 5.6875 22.316406 6.058594 22.382812 6.425781 22.382812 C 6.878906 22.382812 7.332031 22.285156 7.753906 22.089844 C 8.289062 21.84375 8.738281 21.453125 9.0625 20.96875 C 9.304688 21.296875 9.507812 21.570312 9.679688 21.820312 C 9.492188 22.058594 9.273438 22.277344 9.035156 22.46875 C 8.921875 22.558594 8.882812 22.722656 8.945312 22.855469 L 9.339844 23.707031 C 9.34375 23.722656 9.34375 23.738281 9.339844 23.75 C 9.335938 23.757812 9.328125 23.769531 9.3125 23.777344 L 8.027344 24.371094 C 8 24.382812 7.96875 24.371094 7.957031 24.34375 L 7.5625 23.492188 C 7.5 23.359375 7.355469 23.28125 7.207031 23.3125 C 6.800781 23.390625 6.382812 23.40625 5.972656 23.359375 C 5.824219 23.34375 5.683594 23.429688 5.632812 23.570312 L 5.308594 24.449219 C 5.296875 24.476562 5.265625 24.492188 5.238281 24.484375 L 3.914062 23.992188 C 3.886719 23.984375 3.871094 23.953125 3.878906 23.925781 L 4.203125 23.042969 C 4.257812 22.90625 4.207031 22.75 4.082031 22.664062 C 3.738281 22.429688 3.433594 22.148438 3.171875 21.824219 C 3.078125 21.707031 2.917969 21.671875 2.785156 21.734375 L 1.933594 22.125 C 1.917969 22.132812 1.902344 22.132812 1.890625 22.128906 C 1.882812 22.125 1.871094 22.117188 1.863281 22.101562 L 1.269531 20.816406 C 1.257812 20.789062 1.269531 20.757812 1.296875 20.746094 L 2.148438 20.351562 C 2.28125 20.289062 2.355469 20.144531 2.328125 19.996094 C 2.25 19.589844 2.234375 19.171875 2.28125 18.761719 C 2.296875 18.613281 2.210938 18.472656 2.070312 18.421875 L 1.191406 18.097656 C 1.171875 18.089844 1.164062 18.078125 1.160156 18.070312 C 1.15625 18.058594 1.152344 18.046875 1.15625 18.027344 Z M 8.628906 20.4375 C 8.367188 20.902344 7.96875 21.277344 7.480469 21.5 C 6.871094 21.785156 6.1875 21.8125 5.554688 21.578125 C 4.925781 21.34375 4.421875 20.882812 4.140625 20.269531 C 3.855469 19.660156 3.828125 18.976562 4.0625 18.34375 C 4.292969 17.710938 4.757812 17.210938 5.371094 16.925781 C 5.871094 16.695312 6.433594 16.636719 6.96875 16.753906 C 7.128906 18.121094 7.703125 19.398438 8.628906 20.4375 Z M 13.679688 9.84375 C 17.050781 9.84375 19.792969 12.585938 19.792969 15.957031 C 19.792969 17.558594 19.175781 19.074219 18.050781 20.222656 C 18.039062 20.234375 18.03125 20.246094 18.023438 20.257812 C 17.941406 20.367188 17.859375 20.476562 17.785156 20.574219 C 17.234375 21.320312 16.871094 21.816406 16.597656 22.34375 C 16.347656 22.839844 16.179688 23.355469 16.007812 24.183594 L 11.355469 24.183594 C 11.183594 23.355469 11.015625 22.839844 10.761719 22.34375 C 10.492188 21.816406 10.128906 21.320312 9.578125 20.574219 C 9.5 20.476562 9.421875 20.367188 9.339844 20.257812 C 9.332031 20.246094 9.320312 20.234375 9.3125 20.222656 C 8.1875 19.074219 7.570312 17.558594 7.570312 15.957031 C 7.570312 12.585938 10.3125 9.84375 13.679688 9.84375 Z M 16.363281 9.753906 C 16.617188 8.195312 17.949219 7.046875 19.554688 7.046875 C 21.339844 7.046875 22.789062 8.5 22.789062 10.28125 C 22.789062 11.917969 21.570312 13.285156 19.976562 13.492188 C 19.316406 11.816406 18.007812 10.46875 16.363281 9.753906 Z M 11.988281 9.199219 L 10.488281 8.714844 C 10.4375 8.695312 10.398438 8.660156 10.371094 8.613281 C 10.347656 8.566406 10.34375 8.511719 10.359375 8.460938 L 11.046875 6.351562 C 11.078125 6.246094 11.191406 6.1875 11.296875 6.222656 L 12.796875 6.710938 C 12.941406 6.757812 13.097656 6.695312 13.175781 6.566406 C 13.425781 6.136719 13.71875 5.734375 14.046875 5.363281 C 14.148438 5.25 14.160156 5.082031 14.070312 4.957031 L 13.140625 3.683594 C 13.078125 3.597656 13.097656 3.46875 13.1875 3.402344 L 14.980469 2.101562 C 15.023438 2.070312 15.078125 2.054688 15.128906 2.066406 C 15.183594 2.074219 15.230469 2.101562 15.261719 2.144531 L 16.1875 3.417969 C 16.277344 3.542969 16.441406 3.585938 16.578125 3.523438 C 17.03125 3.324219 17.507812 3.167969 17.992188 3.066406 C 18.140625 3.035156 18.246094 2.902344 18.246094 2.75 L 18.246094 1.175781 C 18.246094 1.066406 18.339844 0.972656 18.445312 0.972656 L 20.664062 0.972656 C 20.773438 0.972656 20.863281 1.066406 20.863281 1.175781 L 20.863281 2.75 C 20.863281 2.902344 20.972656 3.035156 21.121094 3.066406 C 21.605469 3.167969 22.078125 3.324219 22.53125 3.523438 C 22.671875 3.585938 22.835938 3.542969 22.925781 3.417969 L 23.851562 2.144531 C 23.882812 2.101562 23.929688 2.074219 23.980469 2.066406 C 24.035156 2.054688 24.085938 2.070312 24.128906 2.101562 L 25.925781 3.402344 C 25.96875 3.433594 25.996094 3.480469 26.003906 3.535156 C 26.011719 3.585938 26 3.640625 25.96875 3.683594 L 25.042969 4.957031 C 24.953125 5.082031 24.960938 5.25 25.0625 5.363281 C 25.394531 5.734375 25.6875 6.136719 25.9375 6.566406 C 26.011719 6.695312 26.171875 6.757812 26.316406 6.710938 L 27.8125 6.222656 C 27.863281 6.207031 27.917969 6.210938 27.964844 6.234375 C 28.015625 6.261719 28.050781 6.300781 28.066406 6.351562 L 28.75 8.460938 C 28.769531 8.511719 28.761719 8.566406 28.738281 8.613281 C 28.714844 8.660156 28.671875 8.695312 28.625 8.714844 L 27.125 9.199219 C 26.980469 9.246094 26.886719 9.390625 26.902344 9.539062 C 26.925781 9.785156 26.941406 10.035156 26.941406 10.28125 C 26.941406 10.53125 26.925781 10.78125 26.902344 11.027344 C 26.886719 11.175781 26.980469 11.320312 27.125 11.367188 L 28.625 11.851562 C 28.726562 11.886719 28.785156 12 28.75 12.105469 L 28.066406 14.214844 C 28.050781 14.265625 28.015625 14.304688 27.964844 14.332031 C 27.917969 14.355469 27.863281 14.359375 27.8125 14.34375 L 26.316406 13.855469 C 26.171875 13.808594 26.011719 13.871094 25.9375 14 C 25.6875 14.425781 25.394531 14.832031 25.0625 15.203125 C 24.960938 15.316406 24.953125 15.484375 25.042969 15.609375 L 25.96875 16.882812 C 26 16.925781 26.011719 16.976562 26.003906 17.03125 C 25.996094 17.085938 25.96875 17.132812 25.925781 17.164062 L 24.128906 18.464844 C 24.042969 18.53125 23.914062 18.507812 23.851562 18.421875 L 22.925781 17.148438 C 22.835938 17.023438 22.671875 16.980469 22.53125 17.042969 C 22.082031 17.242188 21.605469 17.394531 21.121094 17.5 C 20.972656 17.53125 20.863281 17.664062 20.863281 17.816406 L 20.863281 19.390625 C 20.863281 19.5 20.773438 19.59375 20.664062 19.59375 L 19.375 19.59375 C 20.070312 18.515625 20.441406 17.261719 20.441406 15.957031 C 20.441406 15.316406 20.351562 14.699219 20.183594 14.113281 C 22.039062 13.8125 23.4375 12.203125 23.4375 10.28125 C 23.4375 8.140625 21.695312 6.402344 19.554688 6.402344 C 18.582031 6.402344 17.648438 6.765625 16.929688 7.421875 C 16.320312 7.984375 15.910156 8.71875 15.75 9.519531 C 15.097656 9.308594 14.402344 9.195312 13.679688 9.195312 C 13.164062 9.195312 12.660156 9.253906 12.175781 9.367188 C 12.140625 9.289062 12.070312 9.226562 11.988281 9.199219 Z M 14.460938 28.007812 C 14.335938 27.839844 14.140625 27.734375 13.921875 27.734375 L 13.363281 27.734375 C 13.152344 27.734375 12.960938 27.832031 12.835938 27.988281 C 12.457031 27.867188 12.164062 27.644531 11.960938 27.324219 L 15.402344 27.324219 C 15.1875 27.664062 14.875 27.894531 14.460938 28.007812 Z M 15.800781 25.296875 C 15.796875 25.304688 15.796875 25.3125 15.796875 25.320312 L 15.785156 25.429688 L 11.574219 25.429688 L 11.566406 25.320312 C 11.566406 25.3125 11.5625 25.304688 11.5625 25.296875 L 11.476562 24.828125 L 15.882812 24.828125 Z M 11.734375 26.675781 L 11.640625 26.109375 L 11.636719 26.078125 L 15.726562 26.078125 L 15.722656 26.109375 L 15.625 26.675781 Z M 0.964844 18.703125 L 1.613281 18.945312 C 1.597656 19.253906 1.609375 19.5625 1.652344 19.867188 L 1.023438 20.15625 C 0.671875 20.320312 0.519531 20.738281 0.679688 21.089844 L 1.273438 22.371094 C 1.351562 22.542969 1.492188 22.671875 1.667969 22.734375 C 1.84375 22.800781 2.035156 22.792969 2.203125 22.714844 L 2.832031 22.425781 C 3.039062 22.65625 3.265625 22.867188 3.511719 23.050781 L 3.273438 23.703125 C 3.140625 24.0625 3.324219 24.46875 3.6875 24.601562 L 5.015625 25.089844 C 5.09375 25.121094 5.175781 25.132812 5.257812 25.132812 C 5.542969 25.132812 5.8125 24.957031 5.914062 24.675781 L 6.15625 24.023438 C 6.464844 24.042969 6.773438 24.03125 7.078125 23.988281 L 7.371094 24.617188 C 7.53125 24.96875 7.949219 25.121094 8.300781 24.957031 L 9.582031 24.367188 C 9.933594 24.203125 10.089844 23.785156 9.925781 23.4375 L 9.636719 22.808594 C 9.78125 22.675781 9.921875 22.539062 10.050781 22.390625 C 10.097656 22.472656 10.144531 22.554688 10.1875 22.640625 C 10.433594 23.125 10.59375 23.648438 10.773438 24.566406 L 10.921875 25.398438 L 10.960938 25.785156 L 10.996094 26.183594 C 10.996094 26.191406 11 26.199219 11 26.207031 L 11.140625 27.050781 C 11.144531 27.054688 11.144531 27.054688 11.144531 27.058594 C 11.144531 27.058594 11.144531 27.0625 11.144531 27.066406 C 11.148438 27.074219 11.148438 27.082031 11.152344 27.09375 C 11.152344 27.09375 11.152344 27.09375 11.152344 27.097656 C 11.15625 27.101562 11.15625 27.105469 11.15625 27.109375 C 11.433594 27.960938 12.074219 28.519531 12.957031 28.683594 C 13.046875 28.699219 13.136719 28.679688 13.207031 28.625 C 13.28125 28.574219 13.328125 28.492188 13.339844 28.402344 C 13.339844 28.390625 13.351562 28.378906 13.363281 28.378906 L 13.921875 28.378906 C 13.933594 28.378906 13.945312 28.394531 13.945312 28.402344 C 13.953125 28.492188 13.996094 28.574219 14.066406 28.628906 C 14.125 28.675781 14.195312 28.699219 14.269531 28.699219 C 14.285156 28.699219 14.300781 28.699219 14.316406 28.695312 C 15.25 28.554688 15.917969 27.992188 16.203125 27.109375 C 16.207031 27.105469 16.207031 27.101562 16.207031 27.097656 C 16.210938 27.09375 16.210938 27.09375 16.210938 27.09375 C 16.210938 27.082031 16.214844 27.074219 16.214844 27.066406 C 16.21875 27.0625 16.21875 27.058594 16.21875 27.058594 C 16.21875 27.054688 16.21875 27.054688 16.21875 27.050781 L 16.363281 26.207031 C 16.363281 26.199219 16.363281 26.191406 16.367188 26.183594 L 16.402344 25.785156 L 16.441406 25.398438 L 16.589844 24.566406 C 16.769531 23.648438 16.925781 23.125 17.175781 22.640625 C 17.421875 22.15625 17.773438 21.679688 18.308594 20.960938 C 18.378906 20.863281 18.453125 20.765625 18.53125 20.660156 C 18.660156 20.523438 18.785156 20.382812 18.90625 20.238281 L 20.664062 20.238281 C 21.132812 20.238281 21.511719 19.859375 21.511719 19.390625 L 21.511719 18.074219 C 21.867188 17.984375 22.214844 17.871094 22.550781 17.738281 L 23.328125 18.804688 C 23.601562 19.179688 24.132812 19.265625 24.511719 18.988281 L 26.304688 17.6875 C 26.488281 17.554688 26.609375 17.355469 26.644531 17.132812 C 26.679688 16.910156 26.625 16.683594 26.492188 16.503906 L 25.71875 15.433594 C 25.949219 15.15625 26.167969 14.859375 26.359375 14.550781 L 27.613281 14.957031 C 27.828125 15.027344 28.058594 15.011719 28.261719 14.90625 C 28.460938 14.804688 28.613281 14.628906 28.683594 14.414062 L 29.367188 12.304688 C 29.511719 11.859375 29.269531 11.382812 28.824219 11.238281 L 27.570312 10.828125 C 27.582031 10.648438 27.585938 10.464844 27.585938 10.28125 C 27.585938 10.101562 27.582031 9.917969 27.570312 9.738281 L 28.824219 9.328125 C 29.039062 9.257812 29.214844 9.109375 29.316406 8.90625 C 29.417969 8.707031 29.4375 8.476562 29.367188 8.261719 L 28.683594 6.152344 C 28.613281 5.9375 28.460938 5.761719 28.261719 5.660156 C 28.058594 5.554688 27.828125 5.539062 27.613281 5.605469 L 26.359375 6.015625 C 26.167969 5.707031 25.949219 5.410156 25.71875 5.132812 L 26.492188 4.0625 C 26.625 3.882812 26.679688 3.65625 26.644531 3.433594 C 26.609375 3.210938 26.488281 3.011719 26.304688 2.878906 L 24.511719 1.578125 C 24.328125 1.445312 24.105469 1.390625 23.878906 1.425781 C 23.65625 1.460938 23.460938 1.582031 23.328125 1.761719 L 22.550781 2.828125 C 22.214844 2.695312 21.867188 2.582031 21.511719 2.492188 L 21.511719 1.175781 C 21.511719 0.707031 21.132812 0.328125 20.664062 0.328125 L 18.445312 0.328125 C 17.980469 0.328125 17.597656 0.707031 17.597656 1.175781 L 17.597656 2.492188 C 17.246094 2.582031 16.898438 2.695312 16.558594 2.828125 L 15.785156 1.761719 C 15.652344 1.582031 15.457031 1.460938 15.230469 1.425781 C 15.007812 1.390625 14.785156 1.445312 14.601562 1.578125 L 12.804688 2.878906 C 12.429688 3.15625 12.34375 3.6875 12.617188 4.0625 L 13.394531 5.132812 C 13.160156 5.410156 12.945312 5.707031 12.75 6.015625 L 11.496094 5.605469 C 11.054688 5.464844 10.574219 5.707031 10.429688 6.152344 L 9.742188 8.261719 C 9.675781 8.476562 9.691406 8.707031 9.796875 8.90625 C 9.898438 9.109375 10.074219 9.257812 10.289062 9.328125 L 11.257812 9.644531 C 9.554688 10.300781 8.179688 11.632812 7.460938 13.308594 C 7.226562 13.355469 7.023438 13.519531 6.9375 13.753906 L 6.695312 14.402344 C 6.386719 14.386719 6.078125 14.398438 5.773438 14.441406 L 5.484375 13.8125 C 5.320312 13.460938 4.902344 13.308594 4.550781 13.46875 L 3.269531 14.0625 C 2.917969 14.226562 2.765625 14.640625 2.925781 14.992188 L 3.214844 15.621094 C 2.984375 15.828125 2.773438 16.054688 2.589844 16.300781 L 1.9375 16.0625 C 1.761719 15.996094 1.574219 16.003906 1.402344 16.082031 C 1.234375 16.160156 1.101562 16.300781 1.039062 16.476562 L 0.550781 17.804688 C 0.484375 17.980469 0.492188 18.171875 0.570312 18.339844 C 0.648438 18.511719 0.789062 18.640625 0.964844 18.703125 " fill-opacity="1" fill-rule="nonzero"/></g><path fill="#ffde59" d="M 9.132812 18.195312 C 9.191406 18.304688 9.300781 18.367188 9.417969 18.367188 C 9.46875 18.367188 9.519531 18.355469 9.570312 18.328125 C 9.726562 18.242188 9.789062 18.046875 9.703125 17.890625 C 9.171875 16.886719 9.058594 15.738281 9.390625 14.648438 C 9.722656 13.5625 10.457031 12.671875 11.460938 12.136719 C 12.34375 11.667969 13.367188 11.527344 14.347656 11.734375 C 14.519531 11.773438 14.691406 11.660156 14.730469 11.484375 C 14.765625 11.3125 14.65625 11.140625 14.480469 11.101562 C 13.355469 10.859375 12.175781 11.027344 11.15625 11.566406 C 10 12.179688 9.15625 13.210938 8.773438 14.460938 C 8.390625 15.710938 8.515625 17.039062 9.132812 18.195312 " fill-opacity="1" fill-rule="nonzero"/><g clip-path="url(#326c10c990)"><path fill="#ffde59" d="M 1.15625 18.027344 L 1.644531 16.703125 C 1.652344 16.683594 1.664062 16.675781 1.675781 16.671875 C 1.683594 16.667969 1.699219 16.664062 1.714844 16.667969 L 2.59375 16.992188 C 2.734375 17.046875 2.890625 16.996094 2.976562 16.871094 C 3.210938 16.527344 3.492188 16.222656 3.816406 15.960938 C 3.929688 15.867188 3.96875 15.707031 3.90625 15.574219 L 3.515625 14.722656 C 3.5 14.695312 3.511719 14.664062 3.539062 14.648438 L 4.824219 14.058594 C 4.851562 14.046875 4.882812 14.058594 4.894531 14.085938 L 5.289062 14.9375 C 5.351562 15.070312 5.496094 15.144531 5.644531 15.117188 C 6.050781 15.039062 6.464844 15.023438 6.878906 15.070312 C 6.914062 15.074219 6.949219 15.070312 6.980469 15.0625 C 6.941406 15.355469 6.921875 15.652344 6.921875 15.957031 C 6.921875 16 6.921875 16.042969 6.921875 16.085938 C 6.308594 15.988281 5.671875 16.074219 5.097656 16.339844 C 4.332031 16.695312 3.746094 17.328125 3.453125 18.121094 C 3.160156 18.914062 3.195312 19.773438 3.550781 20.542969 C 3.90625 21.308594 4.539062 21.894531 5.332031 22.1875 C 5.6875 22.316406 6.058594 22.382812 6.425781 22.382812 C 6.878906 22.382812 7.332031 22.285156 7.753906 22.089844 C 8.289062 21.84375 8.738281 21.453125 9.0625 20.96875 C 9.304688 21.296875 9.507812 21.570312 9.679688 21.820312 C 9.492188 22.058594 9.273438 22.277344 9.035156 22.46875 C 8.921875 22.558594 8.882812 22.722656 8.945312 22.855469 L 9.339844 23.707031 C 9.34375 23.722656 9.34375 23.738281 9.339844 23.75 C 9.335938 23.757812 9.328125 23.769531 9.3125 23.777344 L 8.027344 24.371094 C 8 24.382812 7.96875 24.371094 7.957031 24.34375 L 7.5625 23.492188 C 7.5 23.359375 7.355469 23.28125 7.207031 23.3125 C 6.800781 23.390625 6.382812 23.40625 5.972656 23.359375 C 5.824219 23.34375 5.683594 23.429688 5.632812 23.570312 L 5.308594 24.449219 C 5.296875 24.476562 5.265625 24.492188 5.238281 24.484375 L 3.914062 23.992188 C 3.886719 23.984375 3.871094 23.953125 3.878906 23.925781 L 4.203125 23.042969 C 4.257812 22.90625 4.207031 22.75 4.082031 22.664062 C 3.738281 22.429688 3.433594 22.148438 3.171875 21.824219 C 3.078125 21.707031 2.917969 21.671875 2.785156 21.734375 L 1.933594 22.125 C 1.917969 22.132812 1.902344 22.132812 1.890625 22.128906 C 1.882812 22.125 1.871094 22.117188 1.863281 22.101562 L 1.269531 20.816406 C 1.257812 20.789062 1.269531 20.757812 1.296875 20.746094 L 2.148438 20.351562 C 2.28125 20.289062 2.355469 20.144531 2.328125 19.996094 C 2.25 19.589844 2.234375 19.171875 2.28125 18.761719 C 2.296875 18.613281 2.210938 18.472656 2.070312 18.421875 L 1.191406 18.097656 C 1.171875 18.089844 1.164062 18.078125 1.160156 18.070312 C 1.15625 18.058594 1.152344 18.046875 1.15625 18.027344 Z M 8.628906 20.4375 C 8.367188 20.902344 7.96875 21.277344 7.480469 21.5 C 6.871094 21.785156 6.1875 21.8125 5.554688 21.578125 C 4.925781 21.34375 4.421875 20.882812 4.140625 20.269531 C 3.855469 19.660156 3.828125 18.976562 4.0625 18.34375 C 4.292969 17.710938 4.757812 17.210938 5.371094 16.925781 C 5.871094 16.695312 6.433594 16.636719 6.96875 16.753906 C 7.128906 18.121094 7.703125 19.398438 8.628906 20.4375 Z M 13.679688 9.84375 C 17.050781 9.84375 19.792969 12.585938 19.792969 15.957031 C 19.792969 17.558594 19.175781 19.074219 18.050781 20.222656 C 18.039062 20.234375 18.03125 20.246094 18.023438 20.257812 C 17.941406 20.367188 17.859375 20.476562 17.785156 20.574219 C 17.234375 21.320312 16.871094 21.816406 16.597656 22.34375 C 16.347656 22.839844 16.179688 23.355469 16.007812 24.183594 L 11.355469 24.183594 C 11.183594 23.355469 11.015625 22.839844 10.761719 22.34375 C 10.492188 21.816406 10.128906 21.320312 9.578125 20.574219 C 9.5 20.476562 9.421875 20.367188 9.339844 20.257812 C 9.332031 20.246094 9.320312 20.234375 9.3125 20.222656 C 8.1875 19.074219 7.570312 17.558594 7.570312 15.957031 C 7.570312 12.585938 10.3125 9.84375 13.679688 9.84375 Z M 16.363281 9.753906 C 16.617188 8.195312 17.949219 7.046875 19.554688 7.046875 C 21.339844 7.046875 22.789062 8.5 22.789062 10.28125 C 22.789062 11.917969 21.570312 13.285156 19.976562 13.492188 C 19.316406 11.816406 18.007812 10.46875 16.363281 9.753906 Z M 11.988281 9.199219 L 10.488281 8.714844 C 10.4375 8.695312 10.398438 8.660156 10.371094 8.613281 C 10.347656 8.566406 10.34375 8.511719 10.359375 8.460938 L 11.046875 6.351562 C 11.078125 6.246094 11.191406 6.1875 11.296875 6.222656 L 12.796875 6.710938 C 12.941406 6.757812 13.097656 6.695312 13.175781 6.566406 C 13.425781 6.136719 13.71875 5.734375 14.046875 5.363281 C 14.148438 5.25 14.160156 5.082031 14.070312 4.957031 L 13.140625 3.683594 C 13.078125 3.597656 13.097656 3.46875 13.1875 3.402344 L 14.980469 2.101562 C 15.023438 2.070312 15.078125 2.054688 15.128906 2.066406 C 15.183594 2.074219 15.230469 2.101562 15.261719 2.144531 L 16.1875 3.417969 C 16.277344 3.542969 16.441406 3.585938 16.578125 3.523438 C 17.03125 3.324219 17.507812 3.167969 17.992188 3.066406 C 18.140625 3.035156 18.246094 2.902344 18.246094 2.75 L 18.246094 1.175781 C 18.246094 1.066406 18.339844 0.972656 18.445312 0.972656 L 20.664062 0.972656 C 20.773438 0.972656 20.863281 1.066406 20.863281 1.175781 L 20.863281 2.75 C 20.863281 2.902344 20.972656 3.035156 21.121094 3.066406 C 21.605469 3.167969 22.078125 3.324219 22.53125 3.523438 C 22.671875 3.585938 22.835938 3.542969 22.925781 3.417969 L 23.851562 2.144531 C 23.882812 2.101562 23.929688 2.074219 23.980469 2.066406 C 24.035156 2.054688 24.085938 2.070312 24.128906 2.101562 L 25.925781 3.402344 C 25.96875 3.433594 25.996094 3.480469 26.003906 3.535156 C 26.011719 3.585938 26 3.640625 25.96875 3.683594 L 25.042969 4.957031 C 24.953125 5.082031 24.960938 5.25 25.0625 5.363281 C 25.394531 5.734375 25.6875 6.136719 25.9375 6.566406 C 26.011719 6.695312 26.171875 6.757812 26.316406 6.710938 L 27.8125 6.222656 C 27.863281 6.207031 27.917969 6.210938 27.964844 6.234375 C 28.015625 6.261719 28.050781 6.300781 28.066406 6.351562 L 28.75 8.460938 C 28.769531 8.511719 28.761719 8.566406 28.738281 8.613281 C 28.714844 8.660156 28.671875 8.695312 28.625 8.714844 L 27.125 9.199219 C 26.980469 9.246094 26.886719 9.390625 26.902344 9.539062 C 26.925781 9.785156 26.941406 10.035156 26.941406 10.28125 C 26.941406 10.53125 26.925781 10.78125 26.902344 11.027344 C 26.886719 11.175781 26.980469 11.320312 27.125 11.367188 L 28.625 11.851562 C 28.726562 11.886719 28.785156 12 28.75 12.105469 L 28.066406 14.214844 C 28.050781 14.265625 28.015625 14.304688 27.964844 14.332031 C 27.917969 14.355469 27.863281 14.359375 27.8125 14.34375 L 26.316406 13.855469 C 26.171875 13.808594 26.011719 13.871094 25.9375 14 C 25.6875 14.425781 25.394531 14.832031 25.0625 15.203125 C 24.960938 15.316406 24.953125 15.484375 25.042969 15.609375 L 25.96875 16.882812 C 26 16.925781 26.011719 16.976562 26.003906 17.03125 C 25.996094 17.085938 25.96875 17.132812 25.925781 17.164062 L 24.128906 18.464844 C 24.042969 18.53125 23.914062 18.507812 23.851562 18.421875 L 22.925781 17.148438 C 22.835938 17.023438 22.671875 16.980469 22.53125 17.042969 C 22.082031 17.242188 21.605469 17.394531 21.121094 17.5 C 20.972656 17.53125 20.863281 17.664062 20.863281 17.816406 L 20.863281 19.390625 C 20.863281 19.5 20.773438 19.59375 20.664062 19.59375 L 19.375 19.59375 C 20.070312 18.515625 20.441406 17.261719 20.441406 15.957031 C 20.441406 15.316406 20.351562 14.699219 20.183594 14.113281 C 22.039062 13.8125 23.4375 12.203125 23.4375 10.28125 C 23.4375 8.140625 21.695312 6.402344 19.554688 6.402344 C 18.582031 6.402344 17.648438 6.765625 16.929688 7.421875 C 16.320312 7.984375 15.910156 8.71875 15.75 9.519531 C 15.097656 9.308594 14.402344 9.195312 13.679688 9.195312 C 13.164062 9.195312 12.660156 9.253906 12.175781 9.367188 C 12.140625 9.289062 12.070312 9.226562 11.988281 9.199219 Z M 14.460938 28.007812 C 14.335938 27.839844 14.140625 27.734375 13.921875 27.734375 L 13.363281 27.734375 C 13.152344 27.734375 12.960938 27.832031 12.835938 27.988281 C 12.457031 27.867188 12.164062 27.644531 11.960938 27.324219 L 15.402344 27.324219 C 15.1875 27.664062 14.875 27.894531 14.460938 28.007812 Z M 15.800781 25.296875 C 15.796875 25.304688 15.796875 25.3125 15.796875 25.320312 L 15.785156 25.429688 L 11.574219 25.429688 L 11.566406 25.320312 C 11.566406 25.3125 11.5625 25.304688 11.5625 25.296875 L 11.476562 24.828125 L 15.882812 24.828125 Z M 11.734375 26.675781 L 11.640625 26.109375 L 11.636719 26.078125 L 15.726562 26.078125 L 15.722656 26.109375 L 15.625 26.675781 Z M 0.964844 18.703125 L 1.613281 18.945312 C 1.597656 19.253906 1.609375 19.5625 1.652344 19.867188 L 1.023438 20.15625 C 0.671875 20.320312 0.519531 20.738281 0.679688 21.089844 L 1.273438 22.371094 C 1.351562 22.542969 1.492188 22.671875 1.667969 22.734375 C 1.84375 22.800781 2.035156 22.792969 2.203125 22.714844 L 2.832031 22.425781 C 3.039062 22.65625 3.265625 22.867188 3.511719 23.050781 L 3.273438 23.703125 C 3.140625 24.0625 3.324219 24.46875 3.6875 24.601562 L 5.015625 25.089844 C 5.09375 25.121094 5.175781 25.132812 5.257812 25.132812 C 5.542969 25.132812 5.8125 24.957031 5.914062 24.675781 L 6.15625 24.023438 C 6.464844 24.042969 6.773438 24.03125 7.078125 23.988281 L 7.371094 24.617188 C 7.53125 24.96875 7.949219 25.121094 8.300781 24.957031 L 9.582031 24.367188 C 9.933594 24.203125 10.089844 23.785156 9.925781 23.4375 L 9.636719 22.808594 C 9.78125 22.675781 9.921875 22.539062 10.050781 22.390625 C 10.097656 22.472656 10.144531 22.554688 10.1875 22.640625 C 10.433594 23.125 10.59375 23.648438 10.773438 24.566406 L 10.921875 25.398438 L 10.960938 25.785156 L 10.996094 26.183594 C 10.996094 26.191406 11 26.199219 11 26.207031 L 11.140625 27.050781 C 11.144531 27.054688 11.144531 27.054688 11.144531 27.058594 C 11.144531 27.058594 11.144531 27.0625 11.144531 27.066406 C 11.148438 27.074219 11.148438 27.082031 11.152344 27.09375 C 11.152344 27.09375 11.152344 27.09375 11.152344 27.097656 C 11.15625 27.101562 11.15625 27.105469 11.15625 27.109375 C 11.433594 27.960938 12.074219 28.519531 12.957031 28.683594 C 13.046875 28.699219 13.136719 28.679688 13.207031 28.625 C 13.28125 28.574219 13.328125 28.492188 13.339844 28.402344 C 13.339844 28.390625 13.351562 28.378906 13.363281 28.378906 L 13.921875 28.378906 C 13.933594 28.378906 13.945312 28.394531 13.945312 28.402344 C 13.953125 28.492188 13.996094 28.574219 14.066406 28.628906 C 14.125 28.675781 14.195312 28.699219 14.269531 28.699219 C 14.285156 28.699219 14.300781 28.699219 14.316406 28.695312 C 15.25 28.554688 15.917969 27.992188 16.203125 27.109375 C 16.207031 27.105469 16.207031 27.101562 16.207031 27.097656 C 16.210938 27.09375 16.210938 27.09375 16.210938 27.09375 C 16.210938 27.082031 16.214844 27.074219 16.214844 27.066406 C 16.21875 27.0625 16.21875 27.058594 16.21875 27.058594 C 16.21875 27.054688 16.21875 27.054688 16.21875 27.050781 L 16.363281 26.207031 C 16.363281 26.199219 16.363281 26.191406 16.367188 26.183594 L 16.402344 25.785156 L 16.441406 25.398438 L 16.589844 24.566406 C 16.769531 23.648438 16.925781 23.125 17.175781 22.640625 C 17.421875 22.15625 17.773438 21.679688 18.308594 20.960938 C 18.378906 20.863281 18.453125 20.765625 18.53125 20.660156 C 18.660156 20.523438 18.785156 20.382812 18.90625 20.238281 L 20.664062 20.238281 C 21.132812 20.238281 21.511719 19.859375 21.511719 19.390625 L 21.511719 18.074219 C 21.867188 17.984375 22.214844 17.871094 22.550781 17.738281 L 23.328125 18.804688 C 23.601562 19.179688 24.132812 19.265625 24.511719 18.988281 L 26.304688 17.6875 C 26.488281 17.554688 26.609375 17.355469 26.644531 17.132812 C 26.679688 16.910156 26.625 16.683594 26.492188 16.503906 L 25.71875 15.433594 C 25.949219 15.15625 26.167969 14.859375 26.359375 14.550781 L 27.613281 14.957031 C 27.828125 15.027344 28.058594 15.011719 28.261719 14.90625 C 28.460938 14.804688 28.613281 14.628906 28.683594 14.414062 L 29.367188 12.304688 C 29.511719 11.859375 29.269531 11.382812 28.824219 11.238281 L 27.570312 10.828125 C 27.582031 10.648438 27.585938 10.464844 27.585938 10.28125 C 27.585938 10.101562 27.582031 9.917969 27.570312 9.738281 L 28.824219 9.328125 C 29.039062 9.257812 29.214844 9.109375 29.316406 8.90625 C 29.417969 8.707031 29.4375 8.476562 29.367188 8.261719 L 28.683594 6.152344 C 28.613281 5.9375 28.460938 5.761719 28.261719 5.660156 C 28.058594 5.554688 27.828125 5.539062 27.613281 5.605469 L 26.359375 6.015625 C 26.167969 5.707031 25.949219 5.410156 25.71875 5.132812 L 26.492188 4.0625 C 26.625 3.882812 26.679688 3.65625 26.644531 3.433594 C 26.609375 3.210938 26.488281 3.011719 26.304688 2.878906 L 24.511719 1.578125 C 24.328125 1.445312 24.105469 1.390625 23.878906 1.425781 C 23.65625 1.460938 23.460938 1.582031 23.328125 1.761719 L 22.550781 2.828125 C 22.214844 2.695312 21.867188 2.582031 21.511719 2.492188 L 21.511719 1.175781 C 21.511719 0.707031 21.132812 0.328125 20.664062 0.328125 L 18.445312 0.328125 C 17.980469 0.328125 17.597656 0.707031 17.597656 1.175781 L 17.597656 2.492188 C 17.246094 2.582031 16.898438 2.695312 16.558594 2.828125 L 15.785156 1.761719 C 15.652344 1.582031 15.457031 1.460938 15.230469 1.425781 C 15.007812 1.390625 14.785156 1.445312 14.601562 1.578125 L 12.804688 2.878906 C 12.429688 3.15625 12.34375 3.6875 12.617188 4.0625 L 13.394531 5.132812 C 13.160156 5.410156 12.945312 5.707031 12.75 6.015625 L 11.496094 5.605469 C 11.054688 5.464844 10.574219 5.707031 10.429688 6.152344 L 9.742188 8.261719 C 9.675781 8.476562 9.691406 8.707031 9.796875 8.90625 C 9.898438 9.109375 10.074219 9.257812 10.289062 9.328125 L 11.257812 9.644531 C 9.554688 10.300781 8.179688 11.632812 7.460938 13.308594 C 7.226562 13.355469 7.023438 13.519531 6.9375 13.753906 L 6.695312 14.402344 C 6.386719 14.386719 6.078125 14.398438 5.773438 14.441406 L 5.484375 13.8125 C 5.320312 13.460938 4.902344 13.308594 4.550781 13.46875 L 3.269531 14.0625 C 2.917969 14.226562 2.765625 14.640625 2.925781 14.992188 L 3.214844 15.621094 C 2.984375 15.828125 2.773438 16.054688 2.589844 16.300781 L 1.9375 16.0625 C 1.761719 15.996094 1.574219 16.003906 1.402344 16.082031 C 1.234375 16.160156 1.101562 16.300781 1.039062 16.476562 L 0.550781 17.804688 C 0.484375 17.980469 0.492188 18.171875 0.570312 18.339844 C 0.648438 18.511719 0.789062 18.640625 0.964844 18.703125 " fill-opacity="1" fill-rule="nonzero"/></g><path fill="#ffde59" d="M 9.132812 18.195312 C 9.191406 18.304688 9.300781 18.367188 9.417969 18.367188 C 9.46875 18.367188 9.519531 18.355469 9.570312 18.328125 C 9.726562 18.242188 9.789062 18.046875 9.703125 17.890625 C 9.171875 16.886719 9.058594 15.738281 9.390625 14.648438 C 9.722656 13.5625 10.457031 12.671875 11.460938 12.136719 C 12.34375 11.667969 13.367188 11.527344 14.347656 11.734375 C 14.519531 11.773438 14.691406 11.660156 14.730469 11.484375 C 14.765625 11.3125 14.65625 11.140625 14.480469 11.101562 C 13.355469 10.859375 12.175781 11.027344 11.15625 11.566406 C 10 12.179688 9.15625 13.210938 8.773438 14.460938 C 8.390625 15.710938 8.515625 17.039062 9.132812 18.195312 " fill-opacity="1" fill-rule="nonzero"/></svg>