<svg xmlns="http://www.w3.org/2000/svg" xmlns:xlink="http://www.w3.org/1999/xlink" width="40" zoomAndPan="magnify" viewBox="0 0 30 30.000001" height="40" preserveAspectRatio="xMidYMid meet" version="1.0"><defs><clipPath id="052f58ed4c"><path d="M 13.09375 21 L 18.175781 21 L 18.175781 26.128906 L 13.09375 26.128906 Z M 13.09375 21 " clip-rule="nonzero"/></clipPath><clipPath id="59b8e11cc5"><path d="M 13.09375 21 L 18.175781 21 L 18.175781 26.128906 L 13.09375 26.128906 Z M 13.09375 21 " clip-rule="nonzero"/></clipPath></defs><path fill="#d1d130" d="M 15.109375 3.617188 L 15.558594 19.121094 C 15.601562 20.578125 15.753906 22.03125 15.792969 23.488281 C 15.804688 23.78125 16.148438 23.792969 16.140625 23.5 C 15.992188 18.332031 15.652344 14.175781 15.789062 9.007812 C 15.828125 7.464844 16.066406 5.0625 16.128906 3.605469 C 16.15625 2.925781 15.035156 2.925781 15.109375 3.617188 Z M 15.109375 3.617188 " fill-opacity="1" fill-rule="nonzero"/><g clip-path="url(#052f58ed4c)"><path fill="#d1d130" d="M 17.472656 21.957031 C 16.882812 23.191406 16.484375 24.472656 15.894531 25.707031 L 16.285156 25.714844 C 15.40625 24.285156 14.695312 22.886719 13.8125 21.457031 C 13.660156 21.210938 13.09375 21.398438 13.25 21.648438 L 15.890625 25.9375 C 15.972656 26.070312 16.207031 26.105469 16.285156 25.945312 L 18.050781 22.242188 C 18.175781 21.980469 17.601562 21.691406 17.472656 21.957031 Z M 17.472656 21.957031 " fill-opacity="1" fill-rule="nonzero"/></g><path fill="#d1d130" d="M 15.109375 3.617188 L 15.558594 19.121094 C 15.601562 20.578125 15.753906 22.03125 15.792969 23.488281 C 15.804688 23.78125 16.148438 23.792969 16.140625 23.5 C 15.992188 18.332031 15.652344 14.175781 15.789062 9.007812 C 15.828125 7.464844 16.066406 5.0625 16.128906 3.605469 C 16.15625 2.925781 15.035156 2.925781 15.109375 3.617188 Z M 15.109375 3.617188 " fill-opacity="1" fill-rule="nonzero"/><g clip-path="url(#59b8e11cc5)"><path fill="#d1d130" d="M 17.472656 21.957031 C 16.882812 23.191406 16.484375 24.472656 15.894531 25.707031 L 16.285156 25.714844 C 15.40625 24.285156 14.695312 22.886719 13.8125 21.457031 C 13.660156 21.210938 13.09375 21.398438 13.25 21.648438 L 15.890625 25.9375 C 15.972656 26.070312 16.207031 26.105469 16.285156 25.945312 L 18.050781 22.242188 C 18.175781 21.980469 17.601562 21.691406 17.472656 21.957031 Z M 17.472656 21.957031 " fill-opacity="1" fill-rule="nonzero"/></g></svg>