<svg xmlns="http://www.w3.org/2000/svg" xmlns:xlink="http://www.w3.org/1999/xlink" width="40" zoomAndPan="magnify" viewBox="0 0 30 30.000001" height="40" preserveAspectRatio="xMidYMid meet" version="1.0"><defs><clipPath id="f8624f0b17"><path d="M 0.484375 0 L 29.515625 0 L 29.515625 24.675781 L 0.484375 24.675781 Z M 0.484375 0 " clip-rule="nonzero"/></clipPath><clipPath id="208a1ceac7"><path d="M 0.484375 0 L 29.515625 0 L 29.515625 24 L 0.484375 24 Z M 0.484375 0 " clip-rule="nonzero"/></clipPath><clipPath id="9f39fc3564"><path d="M 0.484375 21 L 29.515625 21 L 29.515625 29.03125 L 0.484375 29.03125 Z M 0.484375 21 " clip-rule="nonzero"/></clipPath><clipPath id="90d59d431d"><path d="M 3 21 L 4 21 L 4 29.03125 L 3 29.03125 Z M 3 21 " clip-rule="nonzero"/></clipPath></defs><g clip-path="url(#f8624f0b17)"><path fill="#f5f5f5" d="M 28.890625 22.417969 L 28.863281 22.429688 L 28.773438 22.664062 L 28.605469 22.730469 L 28.496094 22.449219 L 28.445312 22.671875 L 28.300781 22.746094 L 28.234375 22.878906 L 28.035156 22.761719 L 27.855469 23 L 27.648438 22.84375 L 27.332031 23.453125 L 27.316406 23.371094 L 27.039062 23.609375 L 26.894531 23.628906 L 26.867188 23.789062 L 26.660156 23.800781 L 26.59375 23.910156 L 26.367188 23.925781 C 26.367188 23.925781 26.351562 23.824219 26.328125 23.84375 C 26.304688 23.859375 25.917969 23.203125 25.867188 23.335938 C 25.816406 23.46875 25.730469 23.574219 25.730469 23.574219 L 25.617188 23.550781 L 25.285156 23.804688 L 24.949219 23.804688 L 24.695312 24.023438 L 24.585938 24.273438 L 24.3125 24.277344 L 23.988281 24.175781 L 23.800781 24.277344 L 23.589844 24.164062 L 23.457031 24.03125 L 23.453125 24.394531 L 23.160156 24.449219 L 22.890625 24.5625 L 22.78125 24.414062 L 22.523438 24.59375 L 22.332031 24.472656 L 22.167969 24.671875 L 21.867188 24.097656 L 21.878906 24.3125 L 21.714844 24.433594 L 21.421875 24.257812 L 21.148438 24.378906 L 20.96875 24.25 L 20.691406 24.355469 L 20.484375 24.339844 L 20.105469 24.179688 L 19.832031 23.902344 L 19.648438 24.015625 L 19.371094 24.058594 L 19.171875 24.121094 L 18.789062 24.085938 L 18.703125 23.964844 L 18.570312 24.03125 L 18.328125 23.765625 L 18.332031 23.628906 L 17.9375 23.613281 L 17.640625 23.339844 L 17.488281 23.402344 L 17.394531 23.507812 L 17.253906 23.601562 L 17.046875 23.605469 L 16.925781 23.6875 L 16.675781 23.402344 L 16.5 22.996094 L 16.359375 23.117188 L 16.226562 23.148438 L 16.191406 22.992188 L 15.6875 23.332031 L 15.238281 23.300781 L 14.996094 23.625 L 14.746094 23.574219 L 14.550781 23.617188 L 14.292969 23.445312 L 14.097656 23.472656 L 13.761719 23.335938 L 13.449219 23.574219 L 13.351562 23.433594 L 13.113281 23.382812 L 12.886719 23.179688 L 12.625 23.0625 L 12.429688 23.253906 L 12.1875 23.050781 L 11.871094 23.035156 L 11.824219 22.863281 L 11.589844 23.058594 L 11.410156 22.847656 L 11.273438 23.386719 L 11.105469 23.210938 L 10.925781 23.332031 L 10.734375 23.011719 L 10.5625 23.007812 L 10.355469 23.066406 L 10.304688 22.640625 L 10.082031 22.777344 L 9.972656 22.265625 L 9.949219 22.390625 L 9.355469 22.691406 L 8.96875 22.433594 L 8.453125 22.703125 L 8.09375 22.425781 L 7.894531 22.832031 L 7.757812 22.640625 L 7.445312 22.601562 L 7.363281 22.527344 L 7.167969 22.542969 L 7.113281 22.382812 L 6.898438 22.398438 L 6.621094 21.820312 L 6.355469 22.238281 L 6.179688 21.851562 L 5.835938 21.988281 L 5.335938 21.941406 L 5.003906 22.359375 L 4.878906 22.113281 L 4.582031 22.007812 L 4.3125 22.34375 L 4.121094 22.054688 L 3.878906 22.121094 L 3.738281 21.679688 L 3.375 22.113281 L 3 21.910156 L 2.898438 21.695312 L 2.695312 21.835938 L 2.589844 22.042969 L 2.417969 21.886719 L 2.3125 22.199219 L 2.1875 22.050781 L 2.027344 22.195312 L 2.015625 22 L 1.691406 21.925781 L 1.644531 21.804688 L 1.609375 21.832031 L 1.613281 21.738281 L 1.523438 21.382812 L 1.5 21.042969 L 1.367188 20.746094 L 1.40625 20.511719 L 1.265625 20.214844 L 1.417969 20.023438 L 1.210938 19.617188 L 1.351562 19.339844 L 0.996094 18.890625 L 1.417969 18.421875 L 1.269531 18.039062 L 0.929688 17.679688 L 1.328125 17.335938 L 1.285156 16.878906 L 0.8125 16.585938 L 0.796875 16.304688 L 0.707031 16.152344 L 0.714844 15.695312 L 0.628906 15.527344 C 0.632812 15.484375 0.632812 15.460938 0.632812 15.460938 L 0.558594 15.042969 L 0.554688 14.972656 L 0.574219 14.488281 L 0.484375 14.320312 L 0.519531 14.078125 L 0.914062 13.605469 L 0.9375 13.136719 L 0.878906 12.839844 L 0.871094 12.585938 L 0.898438 12.332031 L 0.980469 12.042969 L 0.996094 11.574219 L 0.644531 11.070312 L 0.628906 10.828125 L 0.730469 10.667969 L 0.628906 10.613281 L 0.867188 9.703125 C 0.867188 9.703125 0.898438 9.308594 0.84375 9.160156 C 0.808594 9.066406 0.851562 8.792969 0.890625 8.605469 L 1.039062 8.527344 L 1.117188 8.074219 L 1.097656 8.066406 C 1.15625 7.925781 1.199219 7.804688 1.199219 7.804688 L 1.144531 7.449219 L 1.101562 7.273438 L 1.167969 7.140625 L 1.039062 6.972656 L 1.074219 6.375 L 1.046875 6.359375 L 1.175781 6.21875 L 1.058594 5.933594 L 1.296875 5.542969 L 1.164062 5.339844 L 0.945312 4.882812 L 0.925781 4.648438 L 1.082031 4.359375 L 1.09375 4.28125 L 1.179688 4.191406 L 1.277344 3.839844 L 1.214844 3.789062 L 1.253906 3.679688 L 1.273438 3.3125 L 1.144531 3.011719 L 1.28125 2.796875 L 1.273438 2.425781 L 1.109375 2.253906 L 0.945312 1.976562 L 1.164062 1.832031 L 1.082031 1.589844 L 0.746094 1.480469 L 0.679688 1.371094 L 0.738281 1.300781 L 0.820312 1.292969 L 1.136719 0.636719 L 1.566406 0.566406 L 1.648438 0.648438 L 1.875 0.667969 L 2.105469 0.707031 L 2.304688 0.847656 L 2.484375 0.804688 L 2.617188 0.683594 L 2.914062 0.980469 L 3.105469 0.839844 L 3.425781 0.941406 L 3.414062 0.875 L 3.597656 0.957031 L 3.847656 1.027344 L 4.28125 0.699219 L 4.671875 0.957031 L 4.996094 0.894531 L 5.285156 1.027344 L 5.660156 1.03125 L 6.164062 0.953125 L 6.402344 0.796875 L 6.539062 0.847656 L 6.578125 0.816406 L 6.847656 1.171875 L 7.015625 0.957031 L 7.265625 1.195312 L 7.515625 1.273438 L 7.964844 1.203125 L 8.347656 1.402344 L 8.53125 1.292969 L 8.585938 1.417969 L 8.980469 1.503906 L 9.894531 0.875 L 10.273438 0.964844 L 10.34375 1.003906 C 10.546875 1.15625 10.773438 1.316406 10.832031 1.3125 C 10.84375 1.3125 10.863281 1.308594 10.882812 1.300781 L 10.992188 1.394531 L 11.546875 1.21875 L 12.105469 1.375 L 12.210938 1.28125 C 12.234375 1.289062 12.25 1.292969 12.265625 1.292969 C 12.324219 1.292969 12.542969 1.125 12.742188 0.96875 L 12.8125 0.929688 L 13.1875 0.828125 L 14.121094 1.429688 L 14.515625 1.332031 L 14.566406 1.207031 L 14.75 1.308594 L 15.125 1.097656 L 15.578125 1.15625 L 15.828125 1.070312 L 16.066406 0.824219 L 16.242188 1.03125 L 16.5 0.667969 L 16.542969 0.699219 L 16.675781 0.644531 L 16.917969 0.792969 L 17.425781 0.859375 L 17.800781 0.84375 L 18.085938 0.703125 L 18.410156 0.757812 L 18.789062 0.484375 L 19.234375 0.800781 L 19.484375 0.722656 L 19.664062 0.636719 L 19.65625 0.703125 L 19.972656 0.589844 L 20.167969 0.726562 L 20.457031 0.417969 L 20.589844 0.539062 L 20.773438 0.574219 L 20.964844 0.429688 L 21.199219 0.382812 L 21.421875 0.355469 L 21.503906 0.269531 L 21.933594 0.328125 L 22.273438 0.976562 L 22.554688 0.996094 L 22.921875 0.871094 L 23.132812 0.984375 L 23.40625 0.902344 L 23.683594 0.566406 L 23.753906 0.554688 L 24.070312 0.410156 C 24.136719 0.414062 24.191406 0.421875 24.183594 0.425781 C 24.175781 0.425781 24.328125 0.410156 24.46875 0.398438 L 24.820312 0.519531 L 24.863281 0.480469 L 24.90625 0.507812 C 24.90625 0.507812 25.375 0.632812 25.519531 0.449219 L 25.796875 0.449219 L 26.039062 0.539062 L 26.128906 0.425781 L 26.355469 0.550781 L 26.453125 0.414062 L 26.574219 0.351562 L 26.585938 0.355469 L 26.824219 0.3125 L 27.015625 0.457031 C 27.015625 0.457031 28.257812 0.414062 28.457031 0.210938 C 28.660156 0.0078125 28.777344 0.378906 28.777344 0.378906 L 29.0625 0.242188 L 29.039062 0.289062 C 28.878906 0.488281 28.714844 0.710938 28.714844 0.765625 C 28.714844 0.78125 28.71875 0.800781 28.722656 0.820312 L 28.628906 0.925781 L 28.789062 1.484375 L 28.613281 2.039062 L 28.707031 2.148438 C 28.699219 2.167969 28.695312 2.183594 28.695312 2.199219 C 28.691406 2.257812 28.851562 2.484375 29.003906 2.683594 L 29.042969 2.757812 L 29.132812 3.132812 L 28.503906 4.050781 L 28.589844 4.441406 L 28.714844 4.496094 L 28.609375 4.679688 L 28.808594 5.058594 L 28.738281 5.511719 L 28.816406 5.761719 L 29.054688 6.007812 L 28.839844 6.179688 L 29.199219 6.445312 L 29.164062 6.484375 L 29.214844 6.621094 L 29.0625 6.855469 L 28.980469 7.363281 L 28.984375 7.738281 L 29.117188 8.027344 L 29.054688 8.347656 L 29.316406 8.734375 L 28.988281 9.171875 L 29.058594 9.421875 L 29.140625 9.601562 L 29.074219 9.59375 L 29.179688 9.914062 L 29.035156 10.101562 L 29.335938 10.398438 L 29.210938 10.53125 L 29.171875 10.710938 L 29.308594 10.910156 L 29.351562 11.140625 L 29.371094 11.367188 L 29.453125 11.449219 L 29.382812 11.875 L 28.726562 12.199219 L 28.699219 12.476562 L 28.8125 12.847656 L 28.691406 13.058594 L 28.769531 13.332031 L 29.09375 13.621094 L 29.105469 13.6875 L 29.242188 14.011719 C 29.234375 14.074219 29.226562 14.128906 29.222656 14.121094 C 29.222656 14.113281 29.234375 14.269531 29.242188 14.40625 L 29.113281 14.753906 L 29.148438 14.796875 L 29.121094 14.839844 C 29.121094 14.839844 28.980469 15.304688 29.164062 15.453125 L 29.152344 15.730469 L 29.054688 15.972656 L 29.167969 16.0625 L 29.035156 16.285156 L 29.167969 16.386719 L 29.226562 16.511719 L 29.222656 16.519531 L 29.261719 16.761719 L 29.113281 16.949219 C 29.113281 16.949219 29.117188 18.1875 29.316406 18.394531 C 29.515625 18.601562 29.140625 18.707031 29.140625 18.707031 L 29.425781 19.359375 L 29.328125 20.550781 L 29.421875 20.863281 L 29.289062 20.988281 L 29.46875 21.183594 L 29.359375 21.378906 L 29.460938 21.601562 L 29.136719 21.796875 L 28.890625 22.148438 C 28.890625 22.148438 28.933594 22.316406 28.945312 22.324219 C 28.953125 22.328125 28.921875 22.375 28.890625 22.417969 Z M 28.890625 22.417969 " fill-opacity="1" fill-rule="evenodd"/></g><g clip-path="url(#208a1ceac7)"><path fill="#358da3" d="M 25.320312 23.777344 L 25.285156 23.804688 L 24.949219 23.804688 L 24.878906 23.867188 L 18.421875 23.867188 L 18.34375 23.78125 Z M 26.871094 23.777344 L 26.867188 23.789062 L 26.660156 23.800781 L 26.621094 23.863281 L 26.351562 23.863281 C 26.347656 23.847656 26.335938 23.835938 26.328125 23.84375 C 26.324219 23.84375 26.304688 23.820312 26.273438 23.777344 Z M 2.867188 21.71875 L 1.609375 21.714844 L 1.585938 21.628906 L 29.324219 21.683594 L 29.179688 21.769531 L 3.75 21.71875 L 3.738281 21.679688 L 3.703125 21.71875 L 2.910156 21.71875 L 2.898438 21.695312 Z M 1.214844 19.605469 L 29.40625 19.597656 L 29.398438 19.683594 L 1.25 19.691406 L 1.210938 19.617188 Z M 29.140625 17.613281 L 1.140625 17.496094 L 1.238281 17.410156 L 29.136719 17.527344 C 29.136719 17.558594 29.140625 17.585938 29.140625 17.613281 Z M 29.109375 15.382812 L 0.613281 15.355469 L 0.597656 15.269531 L 29.082031 15.296875 C 29.085938 15.328125 29.09375 15.355469 29.109375 15.382812 Z M 28.742188 13.230469 L 28.765625 13.316406 L 0.929688 13.253906 L 0.933594 13.167969 Z M 29.359375 11.214844 L 0.726562 11.191406 L 0.667969 11.105469 L 29.351562 11.128906 L 29.351562 11.140625 Z M 0.835938 8.976562 L 29.101562 9.019531 L 29.039062 9.105469 L 0.832031 9.0625 C 0.832031 9.039062 0.832031 9.007812 0.835938 8.976562 Z M 29.027344 7.070312 L 1.117188 7.078125 L 1.054688 6.988281 L 29.042969 6.984375 Z M 0.941406 4.835938 L 28.71875 4.886719 L 28.765625 4.976562 L 0.964844 4.921875 L 0.945312 4.882812 Z M 29.074219 2.890625 L 1.21875 2.898438 L 1.273438 2.8125 L 29.054688 2.804688 Z M 28.722656 0.820312 L 23.492188 0.796875 L 23.5625 0.710938 L 28.722656 0.734375 C 28.71875 0.746094 28.714844 0.757812 28.714844 0.765625 C 28.714844 0.78125 28.71875 0.800781 28.722656 0.820312 Z M 19.542969 0.695312 L 19.65625 0.695312 L 19.65625 0.703125 L 19.675781 0.695312 L 20.125 0.695312 L 20.167969 0.726562 L 20.195312 0.699219 L 22.128906 0.707031 L 22.175781 0.792969 L 19.304688 0.78125 L 19.484375 0.722656 Z M 18.5 0.691406 L 19.082031 0.691406 L 19.203125 0.78125 L 17.941406 0.773438 L 18.085938 0.703125 L 18.410156 0.757812 Z M 16.585938 0.683594 L 16.734375 0.683594 L 16.878906 0.769531 L 16.429688 0.769531 L 16.488281 0.683594 L 16.515625 0.683594 L 16.542969 0.699219 Z M 4.3125 0.71875 L 4.257812 0.714844 L 4.28125 0.699219 Z M 2.644531 0.710938 L 2.585938 0.710938 L 2.617188 0.683594 Z M 1.246094 0.617188 L 1.621094 0.621094 L 1.648438 0.648438 L 1.875 0.667969 L 2.105469 0.707031 L 1.105469 0.703125 L 1.136719 0.636719 Z M 1.246094 0.617188 " fill-opacity="1" fill-rule="evenodd"/></g><path fill="#ec5a66" d="M 3.597656 0.957031 L 3.691406 0.984375 L 3.644531 21.789062 L 3.480469 21.984375 L 3.523438 0.925781 Z M 3.597656 0.957031 " fill-opacity="1" fill-rule="evenodd"/><g clip-path="url(#9f39fc3564)"><path fill="#f5f5f5" d="M 28.890625 43.320312 L 28.863281 43.332031 L 28.773438 43.566406 L 28.605469 43.636719 L 28.496094 43.355469 L 28.445312 43.574219 L 28.300781 43.648438 L 28.234375 43.785156 L 28.035156 43.664062 L 27.855469 43.90625 L 27.648438 43.746094 L 27.332031 44.359375 L 27.316406 44.273438 L 27.039062 44.511719 L 26.894531 44.535156 L 26.867188 44.691406 L 26.660156 44.703125 L 26.59375 44.8125 L 26.367188 44.828125 C 26.367188 44.828125 26.351562 44.730469 26.328125 44.746094 C 26.304688 44.761719 25.917969 44.109375 25.867188 44.238281 C 25.816406 44.371094 25.730469 44.476562 25.730469 44.476562 L 25.617188 44.453125 L 25.285156 44.707031 L 24.949219 44.707031 L 24.695312 44.925781 L 24.585938 45.179688 L 24.3125 45.179688 L 23.988281 45.078125 L 23.800781 45.179688 L 23.589844 45.066406 L 23.457031 44.933594 L 23.453125 45.296875 L 23.160156 45.355469 L 22.890625 45.464844 L 22.78125 45.320312 L 22.523438 45.5 L 22.332031 45.378906 L 22.167969 45.574219 L 21.867188 45.003906 L 21.878906 45.214844 L 21.714844 45.335938 L 21.421875 45.160156 L 21.148438 45.28125 L 20.96875 45.15625 L 20.691406 45.257812 L 20.484375 45.242188 L 20.105469 45.082031 L 19.832031 44.804688 L 19.648438 44.917969 L 19.371094 44.960938 L 19.171875 45.023438 L 18.789062 44.992188 L 18.703125 44.867188 L 18.570312 44.933594 L 18.328125 44.667969 L 18.332031 44.53125 L 17.9375 44.515625 L 17.640625 44.242188 L 17.488281 44.304688 L 17.394531 44.410156 L 17.253906 44.507812 L 17.046875 44.511719 L 16.925781 44.589844 L 16.675781 44.308594 L 16.5 43.902344 L 16.359375 44.023438 L 16.226562 44.054688 L 16.191406 43.898438 L 15.6875 44.234375 L 15.238281 44.203125 L 14.996094 44.527344 L 14.746094 44.476562 L 14.550781 44.519531 L 14.292969 44.347656 L 14.097656 44.375 L 13.761719 44.238281 L 13.449219 44.476562 L 13.351562 44.335938 L 13.113281 44.285156 L 12.886719 44.085938 L 12.625 43.964844 L 12.429688 44.15625 L 12.1875 43.953125 L 11.871094 43.9375 L 11.824219 43.765625 L 11.589844 43.960938 L 11.410156 43.753906 L 11.273438 44.289062 L 11.105469 44.117188 L 10.925781 44.234375 L 10.734375 43.914062 L 10.5625 43.914062 L 10.355469 43.96875 L 10.304688 43.542969 L 10.082031 43.683594 L 9.972656 43.171875 L 9.949219 43.292969 L 9.355469 43.597656 L 8.96875 43.335938 L 8.453125 43.605469 L 8.09375 43.328125 L 7.894531 43.734375 L 7.757812 43.542969 L 7.445312 43.503906 L 7.363281 43.429688 L 7.167969 43.445312 L 7.113281 43.289062 L 6.898438 43.300781 L 6.621094 42.722656 L 6.355469 43.140625 L 6.179688 42.753906 L 5.835938 42.894531 L 5.335938 42.84375 L 5.003906 43.261719 L 4.878906 43.015625 L 4.582031 42.910156 L 4.3125 43.246094 L 4.121094 42.960938 L 3.878906 43.023438 L 3.738281 42.582031 L 3.375 43.015625 L 3 42.8125 L 2.898438 42.597656 L 2.695312 42.742188 L 2.589844 42.945312 L 2.417969 42.789062 L 2.3125 43.105469 L 2.1875 42.953125 L 2.027344 43.101562 L 2.015625 42.902344 L 1.691406 42.828125 L 1.644531 42.707031 L 1.609375 42.734375 L 1.613281 42.640625 L 1.523438 42.285156 L 1.5 41.949219 L 1.367188 41.648438 L 1.40625 41.414062 L 1.265625 41.121094 L 1.417969 40.925781 L 1.210938 40.519531 L 1.351562 40.246094 L 0.996094 39.792969 L 1.417969 39.324219 L 1.269531 38.941406 L 0.929688 38.582031 L 1.328125 38.238281 L 1.285156 37.78125 L 0.8125 37.492188 L 0.796875 37.207031 L 0.707031 37.054688 L 0.714844 36.597656 L 0.628906 36.433594 C 0.632812 36.390625 0.632812 36.363281 0.632812 36.363281 L 0.558594 35.945312 L 0.554688 35.875 L 0.574219 35.390625 L 0.484375 35.222656 L 0.519531 34.980469 L 0.914062 34.507812 L 0.9375 34.039062 L 0.878906 33.746094 L 0.871094 33.488281 L 0.898438 33.234375 L 0.980469 32.945312 L 0.996094 32.480469 L 0.644531 31.976562 L 0.628906 31.730469 L 0.730469 31.570312 L 0.628906 31.515625 L 0.867188 30.609375 C 0.867188 30.609375 0.898438 30.210938 0.84375 30.0625 C 0.808594 29.972656 0.851562 29.699219 0.890625 29.507812 L 1.039062 29.433594 L 1.117188 28.976562 L 1.097656 28.96875 C 1.15625 28.832031 1.199219 28.710938 1.199219 28.710938 L 1.144531 28.355469 L 1.101562 28.179688 L 1.167969 28.042969 L 1.039062 27.875 L 1.074219 27.277344 L 1.046875 27.261719 L 1.175781 27.121094 L 1.058594 26.835938 L 1.296875 26.449219 L 1.164062 26.242188 L 0.945312 25.789062 L 0.925781 25.550781 L 1.082031 25.265625 L 1.09375 25.1875 L 1.179688 25.097656 L 1.277344 24.742188 L 1.214844 24.691406 L 1.253906 24.582031 L 1.273438 24.214844 L 1.144531 23.914062 L 1.28125 23.703125 L 1.273438 23.328125 L 1.109375 23.15625 L 0.945312 22.878906 L 1.164062 22.734375 L 1.082031 22.492188 L 0.746094 22.382812 L 0.679688 22.277344 L 0.738281 22.203125 L 0.820312 22.195312 L 1.136719 21.539062 L 1.566406 21.46875 L 1.648438 21.550781 L 1.875 21.570312 L 2.105469 21.609375 L 2.304688 21.75 L 2.484375 21.710938 L 2.617188 21.585938 L 2.914062 21.886719 L 3.105469 21.742188 L 3.425781 21.84375 L 3.414062 21.78125 L 3.597656 21.863281 L 3.847656 21.933594 L 4.28125 21.601562 L 4.671875 21.863281 L 4.996094 21.800781 L 5.285156 21.933594 L 5.660156 21.933594 L 6.164062 21.855469 L 6.402344 21.699219 L 6.539062 21.75 L 6.578125 21.71875 L 6.847656 22.074219 L 7.015625 21.859375 L 7.265625 22.101562 L 7.515625 22.179688 L 7.964844 22.105469 L 8.347656 22.304688 L 8.53125 22.199219 L 8.585938 22.320312 L 8.980469 22.40625 L 9.894531 21.78125 L 10.273438 21.867188 L 10.34375 21.90625 C 10.546875 22.058594 10.773438 22.21875 10.832031 22.214844 C 10.84375 22.214844 10.863281 22.210938 10.882812 22.203125 L 10.992188 22.296875 L 11.546875 22.121094 L 12.105469 22.28125 L 12.210938 22.183594 C 12.234375 22.191406 12.25 22.195312 12.265625 22.195312 C 12.324219 22.195312 12.542969 22.027344 12.742188 21.871094 L 12.8125 21.832031 L 13.1875 21.730469 L 14.121094 22.332031 L 14.515625 22.234375 L 14.566406 22.109375 L 14.75 22.210938 L 15.125 22 L 15.578125 22.058594 L 15.828125 21.972656 L 16.066406 21.726562 L 16.242188 21.9375 L 16.5 21.570312 L 16.542969 21.605469 L 16.675781 21.550781 L 16.917969 21.695312 L 17.425781 21.761719 L 17.800781 21.746094 L 18.085938 21.605469 L 18.410156 21.660156 L 18.789062 21.386719 L 19.234375 21.703125 L 19.484375 21.628906 L 19.664062 21.539062 L 19.65625 21.605469 L 19.972656 21.492188 L 20.167969 21.632812 L 20.457031 21.324219 L 20.589844 21.441406 L 20.773438 21.476562 L 20.964844 21.332031 L 21.199219 21.285156 L 21.421875 21.261719 L 21.503906 21.175781 L 21.933594 21.230469 L 22.273438 21.878906 L 22.554688 21.898438 L 22.921875 21.777344 L 23.132812 21.890625 L 23.40625 21.804688 L 23.683594 21.472656 L 23.753906 21.457031 L 24.070312 21.3125 C 24.136719 21.320312 24.191406 21.324219 24.183594 21.328125 C 24.175781 21.328125 24.328125 21.316406 24.46875 21.300781 L 24.820312 21.421875 L 24.863281 21.382812 L 24.90625 21.410156 C 24.90625 21.410156 25.375 21.535156 25.519531 21.351562 L 25.796875 21.351562 L 26.039062 21.445312 L 26.128906 21.328125 L 26.355469 21.453125 L 26.453125 21.316406 L 26.574219 21.257812 L 26.585938 21.261719 L 26.824219 21.214844 L 27.015625 21.359375 C 27.015625 21.359375 28.257812 21.316406 28.457031 21.113281 C 28.660156 20.910156 28.777344 21.28125 28.777344 21.28125 L 29.0625 21.144531 L 29.039062 21.195312 C 28.878906 21.390625 28.714844 21.613281 28.714844 21.671875 C 28.714844 21.683594 28.71875 21.703125 28.722656 21.722656 L 28.628906 21.832031 L 28.789062 22.386719 L 28.613281 22.941406 L 28.707031 23.050781 C 28.699219 23.070312 28.695312 23.089844 28.695312 23.101562 C 28.691406 23.160156 28.851562 23.386719 29.003906 23.585938 L 29.042969 23.660156 L 29.132812 24.035156 L 28.503906 24.953125 L 28.589844 25.347656 L 28.714844 25.402344 L 28.609375 25.585938 L 28.808594 25.960938 L 28.738281 26.414062 L 28.816406 26.664062 L 29.054688 26.910156 L 28.839844 27.082031 L 29.199219 27.347656 L 29.164062 27.390625 L 29.214844 27.523438 L 29.0625 27.761719 L 28.980469 28.265625 L 28.984375 28.640625 L 29.117188 28.929688 L 29.054688 29.25 L 29.316406 29.640625 L 28.988281 30.074219 L 29.058594 30.324219 L 29.140625 30.507812 L 29.074219 30.496094 L 29.179688 30.816406 L 29.035156 31.007812 L 29.335938 31.304688 L 29.210938 31.433594 L 29.171875 31.613281 L 29.308594 31.8125 L 29.351562 32.046875 L 29.371094 32.269531 L 29.453125 32.351562 L 29.382812 32.78125 L 28.726562 33.101562 L 28.699219 33.378906 L 28.8125 33.753906 L 28.691406 33.960938 L 28.769531 34.234375 L 29.09375 34.523438 L 29.105469 34.589844 L 29.242188 34.914062 C 29.234375 34.976562 29.226562 35.03125 29.222656 35.027344 C 29.222656 35.019531 29.234375 35.171875 29.242188 35.308594 L 29.113281 35.65625 L 29.148438 35.699219 L 29.121094 35.742188 C 29.121094 35.742188 28.980469 36.207031 29.164062 36.355469 L 29.152344 36.636719 L 29.054688 36.875 L 29.167969 36.964844 L 29.035156 37.1875 L 29.167969 37.289062 L 29.226562 37.414062 L 29.222656 37.425781 L 29.261719 37.664062 L 29.113281 37.851562 C 29.113281 37.851562 29.117188 39.089844 29.316406 39.296875 C 29.515625 39.503906 29.140625 39.613281 29.140625 39.613281 L 29.425781 40.261719 L 29.328125 41.457031 L 29.421875 41.765625 L 29.289062 41.890625 L 29.46875 42.089844 L 29.359375 42.28125 L 29.460938 42.503906 L 29.136719 42.699219 L 28.890625 43.050781 C 28.890625 43.050781 28.933594 43.21875 28.945312 43.226562 C 28.953125 43.230469 28.921875 43.28125 28.890625 43.320312 Z M 28.890625 43.320312 " fill-opacity="1" fill-rule="evenodd"/><path fill="#358da3" d="M 25.320312 44.683594 L 25.285156 44.707031 L 24.949219 44.707031 L 24.878906 44.769531 L 18.421875 44.769531 L 18.34375 44.683594 Z M 26.871094 44.683594 L 26.867188 44.691406 L 26.660156 44.703125 L 26.621094 44.769531 L 26.351562 44.769531 C 26.347656 44.75 26.335938 44.738281 26.328125 44.746094 C 26.324219 44.75 26.304688 44.722656 26.273438 44.683594 Z M 2.867188 42.621094 L 1.609375 42.617188 L 1.585938 42.53125 L 29.324219 42.585938 L 29.179688 42.671875 L 3.75 42.621094 L 3.738281 42.582031 L 3.703125 42.621094 L 2.910156 42.621094 L 2.898438 42.597656 Z M 1.214844 40.507812 L 29.40625 40.503906 L 29.398438 40.589844 L 1.25 40.59375 L 1.210938 40.519531 Z M 29.140625 38.519531 L 1.140625 38.402344 L 1.238281 38.316406 L 29.136719 38.433594 C 29.136719 38.460938 29.140625 38.488281 29.140625 38.519531 Z M 29.109375 36.285156 L 0.613281 36.257812 L 0.597656 36.171875 L 29.082031 36.199219 C 29.085938 36.230469 29.09375 36.261719 29.109375 36.285156 Z M 28.742188 34.132812 L 28.765625 34.21875 L 0.929688 34.15625 L 0.933594 34.070312 Z M 29.359375 32.117188 L 0.726562 32.09375 L 0.667969 32.007812 L 29.351562 32.03125 L 29.351562 32.046875 Z M 0.835938 29.878906 L 29.101562 29.921875 L 29.039062 30.007812 L 0.832031 29.96875 C 0.832031 29.941406 0.832031 29.910156 0.835938 29.878906 Z M 29.027344 27.972656 L 1.117188 27.980469 L 1.054688 27.894531 L 29.042969 27.886719 Z M 0.941406 25.738281 L 28.71875 25.792969 L 28.765625 25.878906 L 0.964844 25.824219 L 0.945312 25.789062 Z M 29.074219 23.796875 L 1.21875 23.800781 L 1.273438 23.714844 L 29.054688 23.710938 Z M 28.722656 21.722656 L 23.492188 21.699219 L 23.5625 21.613281 L 28.722656 21.636719 C 28.71875 21.652344 28.714844 21.660156 28.714844 21.671875 C 28.714844 21.683594 28.71875 21.703125 28.722656 21.722656 Z M 19.542969 21.597656 L 19.65625 21.597656 L 19.65625 21.605469 L 19.675781 21.597656 L 20.125 21.601562 L 20.167969 21.628906 L 20.195312 21.601562 L 22.128906 21.609375 L 22.175781 21.695312 L 19.304688 21.683594 L 19.484375 21.628906 Z M 18.5 21.59375 L 19.082031 21.597656 L 19.203125 21.683594 L 17.941406 21.675781 L 18.085938 21.605469 L 18.410156 21.660156 Z M 16.585938 21.585938 L 16.734375 21.585938 L 16.878906 21.671875 L 16.429688 21.671875 L 16.488281 21.585938 L 16.515625 21.585938 L 16.542969 21.605469 Z M 4.3125 21.621094 L 4.257812 21.621094 L 4.28125 21.601562 Z M 2.644531 21.613281 L 2.585938 21.613281 L 2.617188 21.585938 Z M 1.246094 21.519531 L 1.621094 21.523438 L 1.648438 21.550781 L 1.875 21.570312 L 2.105469 21.609375 L 1.105469 21.605469 L 1.136719 21.539062 Z M 1.246094 21.519531 " fill-opacity="1" fill-rule="evenodd"/></g><g clip-path="url(#90d59d431d)"><path fill="#ec5a66" d="M 3.597656 21.863281 L 3.691406 21.886719 L 3.644531 42.691406 L 3.480469 42.886719 L 3.523438 21.828125 Z M 3.597656 21.863281 " fill-opacity="1" fill-rule="evenodd"/></g></svg>