<svg xmlns="http://www.w3.org/2000/svg" xmlns:xlink="http://www.w3.org/1999/xlink" width="350" zoomAndPan="magnify" viewBox="0 0 262.5 37.5" height="50" preserveAspectRatio="xMidYMid meet" version="1.0"><defs><clipPath id="47c4607d76"><path d="M 45.59375 1.640625 L 87 1.640625 L 87 29.765625 L 45.59375 29.765625 Z M 45.59375 1.640625 " clip-rule="nonzero"/></clipPath><clipPath id="93ab302aea"><path d="M 77 5 L 119 5 L 119 35 L 77 35 Z M 77 5 " clip-rule="nonzero"/></clipPath><clipPath id="6e81d9be1c"><path d="M 118.539062 33.644531 L 77.101562 34.496094 L 76.523438 6.375 L 117.960938 5.523438 Z M 118.539062 33.644531 " clip-rule="nonzero"/></clipPath><clipPath id="8cbc2e85fa"><path d="M 118.539062 33.644531 L 77.101562 34.496094 L 76.523438 6.375 L 117.960938 5.523438 Z M 118.539062 33.644531 " clip-rule="nonzero"/></clipPath><clipPath id="8e1b6a25da"><path d="M 133.882812 1.640625 L 175 1.640625 L 175 29.765625 L 133.882812 29.765625 Z M 133.882812 1.640625 " clip-rule="nonzero"/></clipPath><clipPath id="18370144b0"><path d="M 166 4 L 208 4 L 208 34 L 166 34 Z M 166 4 " clip-rule="nonzero"/></clipPath><clipPath id="0a74ce1dff"><path d="M 207.382812 32.457031 L 165.945312 33.308594 L 165.367188 5.1875 L 206.804688 4.339844 Z M 207.382812 32.457031 " clip-rule="nonzero"/></clipPath><clipPath id="ef2fb00854"><path d="M 207.382812 32.457031 L 165.945312 33.308594 L 165.367188 5.1875 L 206.804688 4.339844 Z M 207.382812 32.457031 " clip-rule="nonzero"/></clipPath></defs><g clip-path="url(#47c4607d76)"><path fill="#9d3c00" d="M 83.867188 12.019531 L 73.617188 1.769531 L 63.363281 12.019531 L 73.617188 22.273438 Z M 66.207031 18.273438 L 55.953125 8.023438 L 45.703125 18.273438 L 55.953125 28.527344 Z M 55.984375 7.941406 L 66.316406 18.273438 L 55.957031 28.636719 C 52.503906 25.183594 49.046875 21.730469 45.59375 18.273438 C 49.050781 14.820312 52.503906 11.367188 55.957031 7.914062 Z M 72.652344 24.808594 L 67.757812 19.914062 L 62.863281 24.804688 L 67.757812 29.699219 Z M 67.785156 19.832031 L 72.761719 24.808594 L 67.757812 29.816406 L 62.75 24.808594 L 67.757812 19.804688 Z M 61.261719 27.070312 C 61.261719 26.867188 61.300781 26.675781 61.378906 26.488281 C 61.457031 26.300781 61.566406 26.136719 61.710938 25.992188 C 61.851562 25.847656 62.015625 25.738281 62.203125 25.660156 C 62.390625 25.585938 62.585938 25.546875 62.789062 25.546875 C 62.585938 25.546875 62.390625 25.507812 62.203125 25.429688 C 62.015625 25.351562 61.851562 25.242188 61.710938 25.101562 C 61.566406 24.957031 61.457031 24.792969 61.378906 24.605469 C 61.300781 24.417969 61.261719 24.222656 61.261719 24.023438 C 61.261719 24.222656 61.222656 24.417969 61.144531 24.601562 C 61.066406 24.789062 60.957031 24.953125 60.816406 25.09375 C 60.671875 25.238281 60.507812 25.347656 60.324219 25.425781 C 60.136719 25.503906 59.941406 25.542969 59.742188 25.542969 C 59.945312 25.542969 60.136719 25.582031 60.324219 25.660156 C 60.511719 25.738281 60.675781 25.847656 60.820312 25.992188 C 60.960938 26.132812 61.070312 26.300781 61.148438 26.488281 C 61.226562 26.675781 61.261719 26.867188 61.261719 27.070312 Z M 61.804688 12.785156 C 61.804688 12.582031 61.84375 12.390625 61.921875 12.203125 C 62 12.015625 62.109375 11.851562 62.253906 11.707031 C 62.394531 11.566406 62.5625 11.453125 62.746094 11.378906 C 62.933594 11.300781 63.128906 11.261719 63.332031 11.261719 C 63.128906 11.261719 62.933594 11.222656 62.746094 11.144531 C 62.5625 11.066406 62.394531 10.957031 62.253906 10.816406 C 62.109375 10.671875 62 10.507812 61.921875 10.320312 C 61.84375 10.132812 61.804688 9.9375 61.804688 9.738281 C 61.804688 9.9375 61.765625 10.132812 61.691406 10.320312 C 61.613281 10.507812 61.503906 10.671875 61.359375 10.816406 C 61.214844 10.957031 61.050781 11.066406 60.863281 11.144531 C 60.679688 11.222656 60.484375 11.261719 60.28125 11.261719 C 60.484375 11.261719 60.675781 11.300781 60.863281 11.378906 C 61.050781 11.453125 61.214844 11.5625 61.359375 11.707031 C 61.5 11.847656 61.609375 12.011719 61.6875 12.199219 C 61.765625 12.386719 61.804688 12.578125 61.804688 12.78125 Z M 85.183594 12.300781 C 85.183594 12.097656 85.222656 11.902344 85.296875 11.714844 C 85.375 11.53125 85.484375 11.363281 85.628906 11.222656 C 85.773438 11.078125 85.9375 10.96875 86.125 10.890625 C 86.308594 10.8125 86.503906 10.773438 86.707031 10.773438 C 86.503906 10.773438 86.308594 10.738281 86.121094 10.660156 C 85.9375 10.582031 85.769531 10.472656 85.628906 10.328125 C 85.484375 10.183594 85.375 10.019531 85.296875 9.832031 C 85.21875 9.648438 85.183594 9.453125 85.183594 9.25 C 85.183594 9.453125 85.144531 9.648438 85.066406 9.832031 C 84.988281 10.019531 84.878906 10.183594 84.734375 10.328125 C 84.59375 10.472656 84.429688 10.582031 84.242188 10.660156 C 84.054688 10.738281 83.859375 10.773438 83.65625 10.773438 C 83.859375 10.773438 84.054688 10.8125 84.238281 10.890625 C 84.425781 10.96875 84.589844 11.078125 84.734375 11.21875 C 84.875 11.363281 84.988281 11.527344 85.066406 11.714844 C 85.140625 11.898438 85.179688 12.09375 85.183594 12.296875 Z M 73.648438 1.683594 L 83.980469 12.019531 C 80.527344 15.472656 77.070312 18.925781 73.617188 22.378906 C 70.164062 18.925781 66.710938 15.472656 63.257812 12.019531 L 73.617188 1.65625 Z M 73.648438 1.683594 " fill-opacity="1" fill-rule="nonzero"/></g><g clip-path="url(#93ab302aea)"><g clip-path="url(#6e81d9be1c)"><g clip-path="url(#8cbc2e85fa)"><path fill="#9d3c00" d="M 80.058594 24.054688 L 90.519531 34.089844 L 100.558594 23.632812 L 90.097656 13.59375 Z M 97.589844 17.4375 L 108.046875 27.476562 L 118.085938 17.015625 L 107.628906 6.976562 Z M 108.019531 27.558594 L 97.476562 17.4375 L 107.625 6.867188 C 111.148438 10.246094 114.671875 13.628906 118.195312 17.011719 C 114.8125 20.535156 111.429688 24.058594 108.046875 27.585938 Z M 91.007812 11.035156 L 96.003906 15.832031 L 100.796875 10.835938 L 95.804688 6.042969 Z M 95.980469 15.914062 L 90.898438 11.039062 L 95.800781 5.929688 L 100.90625 10.832031 L 96.007812 15.941406 Z M 102.351562 8.542969 C 102.355469 8.742188 102.320312 8.9375 102.246094 9.125 C 102.171875 9.316406 102.066406 9.484375 101.925781 9.628906 C 101.785156 9.773438 101.621094 9.886719 101.4375 9.96875 C 101.253906 10.050781 101.058594 10.09375 100.855469 10.097656 C 101.058594 10.09375 101.253906 10.125 101.441406 10.199219 C 101.632812 10.273438 101.796875 10.378906 101.945312 10.519531 C 102.089844 10.660156 102.203125 10.824219 102.285156 11.007812 C 102.367188 11.195312 102.410156 11.386719 102.414062 11.589844 C 102.410156 11.386719 102.445312 11.195312 102.519531 11.007812 C 102.589844 10.816406 102.699219 10.652344 102.835938 10.507812 C 102.976562 10.359375 103.140625 10.25 103.324219 10.167969 C 103.507812 10.085938 103.699219 10.042969 103.902344 10.039062 C 103.699219 10.042969 103.503906 10.007812 103.316406 9.933594 C 103.128906 9.859375 102.960938 9.75 102.816406 9.609375 C 102.671875 9.472656 102.558594 9.308594 102.476562 9.121094 C 102.394531 8.9375 102.355469 8.742188 102.351562 8.542969 Z M 102.101562 22.835938 C 102.105469 23.035156 102.070312 23.230469 101.996094 23.421875 C 101.921875 23.609375 101.816406 23.777344 101.675781 23.921875 C 101.535156 24.066406 101.371094 24.179688 101.1875 24.261719 C 101.003906 24.34375 100.808594 24.386719 100.605469 24.390625 C 100.808594 24.386719 101.003906 24.421875 101.191406 24.492188 C 101.378906 24.566406 101.546875 24.675781 101.695312 24.8125 C 101.839844 24.953125 101.953125 25.117188 102.035156 25.300781 C 102.117188 25.488281 102.160156 25.679688 102.164062 25.882812 C 102.160156 25.679688 102.191406 25.484375 102.265625 25.296875 C 102.339844 25.109375 102.445312 24.941406 102.585938 24.796875 C 102.726562 24.648438 102.890625 24.535156 103.074219 24.453125 C 103.261719 24.375 103.453125 24.332031 103.65625 24.328125 C 103.453125 24.332031 103.257812 24.296875 103.070312 24.222656 C 102.882812 24.148438 102.714844 24.042969 102.570312 23.902344 C 102.425781 23.765625 102.3125 23.601562 102.230469 23.417969 C 102.148438 23.234375 102.105469 23.039062 102.101562 22.839844 Z M 78.738281 23.800781 C 78.742188 24.003906 78.707031 24.195312 78.636719 24.386719 C 78.5625 24.574219 78.453125 24.742188 78.316406 24.886719 C 78.175781 25.03125 78.011719 25.144531 77.828125 25.226562 C 77.640625 25.308594 77.449219 25.351562 77.246094 25.355469 C 77.449219 25.351562 77.644531 25.386719 77.832031 25.460938 C 78.019531 25.53125 78.1875 25.640625 78.332031 25.78125 C 78.480469 25.921875 78.59375 26.082031 78.675781 26.269531 C 78.753906 26.453125 78.796875 26.648438 78.800781 26.847656 C 78.796875 26.648438 78.832031 26.453125 78.90625 26.261719 C 78.980469 26.074219 79.085938 25.90625 79.226562 25.761719 C 79.367188 25.617188 79.527344 25.503906 79.714844 25.421875 C 79.898438 25.339844 80.09375 25.296875 80.292969 25.292969 C 80.09375 25.296875 79.898438 25.261719 79.710938 25.1875 C 79.523438 25.117188 79.355469 25.007812 79.210938 24.871094 C 79.0625 24.730469 78.949219 24.570312 78.867188 24.382812 C 78.785156 24.199219 78.742188 24.007812 78.738281 23.804688 Z M 90.488281 34.175781 L 79.949219 24.058594 C 83.328125 20.53125 86.710938 17.007812 90.09375 13.484375 C 93.617188 16.867188 97.140625 20.25 100.664062 23.632812 L 90.519531 34.203125 Z M 90.488281 34.175781 " fill-opacity="1" fill-rule="nonzero"/></g></g></g><g clip-path="url(#8e1b6a25da)"><path fill="#9d3c00" d="M 172.160156 12.019531 L 161.910156 1.769531 L 151.65625 12.019531 L 161.910156 22.273438 Z M 154.496094 18.273438 L 144.246094 8.023438 L 133.996094 18.273438 L 144.246094 28.527344 Z M 144.277344 7.941406 L 154.609375 18.273438 L 144.25 28.636719 C 140.792969 25.183594 137.339844 21.730469 133.886719 18.273438 C 137.34375 14.820312 140.796875 11.367188 144.25 7.914062 Z M 160.945312 24.808594 L 156.050781 19.914062 L 151.15625 24.804688 L 156.050781 29.699219 Z M 156.074219 19.832031 L 161.054688 24.808594 L 156.050781 29.816406 L 151.042969 24.808594 L 156.050781 19.804688 Z M 149.554688 27.070312 C 149.554688 26.867188 149.59375 26.675781 149.671875 26.488281 C 149.746094 26.300781 149.859375 26.136719 150 25.992188 C 150.144531 25.847656 150.308594 25.738281 150.496094 25.660156 C 150.683594 25.585938 150.878906 25.546875 151.078125 25.546875 C 150.878906 25.546875 150.683594 25.507812 150.496094 25.429688 C 150.308594 25.351562 150.144531 25.242188 150 25.101562 C 149.859375 24.957031 149.746094 24.792969 149.671875 24.605469 C 149.59375 24.417969 149.554688 24.222656 149.554688 24.023438 C 149.554688 24.222656 149.515625 24.417969 149.4375 24.601562 C 149.359375 24.789062 149.25 24.953125 149.109375 25.09375 C 148.964844 25.238281 148.800781 25.347656 148.613281 25.425781 C 148.429688 25.503906 148.234375 25.542969 148.035156 25.542969 C 148.234375 25.542969 148.429688 25.582031 148.617188 25.660156 C 148.804688 25.738281 148.96875 25.847656 149.109375 25.992188 C 149.253906 26.132812 149.363281 26.300781 149.441406 26.488281 C 149.515625 26.675781 149.554688 26.867188 149.554688 27.070312 Z M 150.097656 12.785156 C 150.097656 12.582031 150.136719 12.390625 150.214844 12.203125 C 150.292969 12.015625 150.402344 11.851562 150.542969 11.707031 C 150.6875 11.566406 150.851562 11.453125 151.039062 11.378906 C 151.226562 11.300781 151.421875 11.261719 151.625 11.261719 C 151.421875 11.261719 151.226562 11.222656 151.039062 11.144531 C 150.851562 11.066406 150.6875 10.957031 150.542969 10.816406 C 150.402344 10.671875 150.292969 10.507812 150.214844 10.320312 C 150.136719 10.132812 150.097656 9.9375 150.097656 9.738281 C 150.097656 9.9375 150.058594 10.132812 149.980469 10.320312 C 149.90625 10.507812 149.792969 10.671875 149.652344 10.816406 C 149.507812 10.957031 149.34375 11.066406 149.15625 11.144531 C 148.96875 11.222656 148.777344 11.261719 148.574219 11.261719 C 148.773438 11.261719 148.96875 11.300781 149.15625 11.378906 C 149.34375 11.453125 149.507812 11.5625 149.648438 11.707031 C 149.792969 11.847656 149.902344 12.011719 149.980469 12.199219 C 150.058594 12.386719 150.097656 12.578125 150.097656 12.78125 Z M 173.472656 12.300781 C 173.472656 12.097656 173.511719 11.902344 173.589844 11.714844 C 173.667969 11.53125 173.777344 11.363281 173.921875 11.222656 C 174.0625 11.078125 174.226562 10.96875 174.414062 10.890625 C 174.601562 10.8125 174.796875 10.773438 175 10.773438 C 174.796875 10.773438 174.601562 10.738281 174.414062 10.660156 C 174.226562 10.582031 174.0625 10.472656 173.921875 10.328125 C 173.777344 10.183594 173.667969 10.019531 173.589844 9.832031 C 173.511719 9.648438 173.472656 9.453125 173.472656 9.25 C 173.472656 9.453125 173.433594 9.648438 173.359375 9.832031 C 173.28125 10.019531 173.171875 10.183594 173.027344 10.328125 C 172.882812 10.472656 172.71875 10.582031 172.53125 10.660156 C 172.347656 10.738281 172.152344 10.773438 171.949219 10.773438 C 172.152344 10.773438 172.34375 10.8125 172.53125 10.890625 C 172.71875 10.96875 172.882812 11.078125 173.027344 11.21875 C 173.167969 11.363281 173.277344 11.527344 173.355469 11.714844 C 173.433594 11.898438 173.472656 12.09375 173.472656 12.296875 Z M 161.9375 1.683594 L 172.269531 12.019531 C 168.816406 15.472656 165.363281 18.925781 161.910156 22.378906 C 158.457031 18.925781 155.003906 15.472656 151.550781 12.019531 L 161.910156 1.65625 Z M 161.9375 1.683594 " fill-opacity="1" fill-rule="nonzero"/></g><g clip-path="url(#18370144b0)"><g clip-path="url(#0a74ce1dff)"><g clip-path="url(#ef2fb00854)"><path fill="#9d3c00" d="M 168.902344 22.867188 L 179.363281 32.902344 L 189.402344 22.445312 L 178.941406 12.40625 Z M 186.433594 16.25 L 196.890625 26.289062 L 206.929688 15.828125 L 196.472656 5.789062 Z M 196.863281 26.371094 L 186.320312 16.253906 L 196.46875 5.679688 C 199.992188 9.0625 203.515625 12.441406 207.039062 15.828125 C 203.65625 19.351562 200.273438 22.875 196.890625 26.398438 Z M 179.851562 9.847656 L 184.847656 14.644531 L 189.640625 9.652344 L 184.648438 4.859375 Z M 184.824219 14.726562 L 179.742188 9.851562 L 184.644531 4.742188 L 189.75 9.644531 L 184.851562 14.753906 Z M 191.195312 7.355469 C 191.199219 7.554688 191.164062 7.75 191.089844 7.941406 C 191.015625 8.128906 190.910156 8.296875 190.769531 8.441406 C 190.628906 8.585938 190.46875 8.699219 190.28125 8.78125 C 190.097656 8.863281 189.902344 8.90625 189.699219 8.910156 C 189.902344 8.90625 190.097656 8.941406 190.285156 9.011719 C 190.476562 9.085938 190.640625 9.195312 190.789062 9.332031 C 190.933594 9.472656 191.046875 9.636719 191.128906 9.820312 C 191.210938 10.007812 191.253906 10.199219 191.257812 10.402344 C 191.253906 10.199219 191.289062 10.007812 191.363281 9.820312 C 191.433594 9.632812 191.542969 9.464844 191.679688 9.320312 C 191.820312 9.175781 191.984375 9.0625 192.167969 8.980469 C 192.351562 8.898438 192.542969 8.855469 192.746094 8.851562 C 192.542969 8.855469 192.347656 8.820312 192.160156 8.746094 C 191.972656 8.671875 191.804688 8.566406 191.660156 8.425781 C 191.515625 8.285156 191.402344 8.121094 191.320312 7.9375 C 191.238281 7.75 191.199219 7.554688 191.195312 7.355469 Z M 190.945312 21.648438 C 190.949219 21.847656 190.914062 22.042969 190.839844 22.234375 C 190.765625 22.421875 190.660156 22.589844 190.519531 22.734375 C 190.378906 22.878906 190.214844 22.992188 190.03125 23.074219 C 189.847656 23.15625 189.652344 23.199219 189.449219 23.203125 C 189.652344 23.199219 189.847656 23.234375 190.035156 23.308594 C 190.222656 23.378906 190.390625 23.488281 190.539062 23.625 C 190.683594 23.765625 190.796875 23.929688 190.878906 24.113281 C 190.960938 24.300781 191.003906 24.492188 191.007812 24.695312 C 191.003906 24.492188 191.035156 24.296875 191.109375 24.109375 C 191.183594 23.921875 191.289062 23.753906 191.429688 23.609375 C 191.570312 23.460938 191.734375 23.347656 191.917969 23.269531 C 192.105469 23.1875 192.296875 23.144531 192.5 23.140625 C 192.296875 23.144531 192.101562 23.109375 191.914062 23.035156 C 191.726562 22.964844 191.558594 22.855469 191.414062 22.71875 C 191.269531 22.578125 191.15625 22.414062 191.074219 22.230469 C 190.992188 22.046875 190.949219 21.851562 190.945312 21.652344 Z M 167.582031 22.613281 C 167.585938 22.816406 167.550781 23.011719 167.480469 23.199219 C 167.40625 23.386719 167.296875 23.554688 167.160156 23.699219 C 167.019531 23.84375 166.855469 23.960938 166.671875 24.039062 C 166.484375 24.121094 166.292969 24.164062 166.089844 24.167969 C 166.292969 24.164062 166.488281 24.199219 166.675781 24.273438 C 166.863281 24.347656 167.03125 24.453125 167.175781 24.59375 C 167.324219 24.734375 167.4375 24.894531 167.519531 25.082031 C 167.597656 25.265625 167.640625 25.460938 167.644531 25.660156 C 167.640625 25.460938 167.675781 25.265625 167.75 25.078125 C 167.824219 24.886719 167.929688 24.71875 168.070312 24.574219 C 168.210938 24.429688 168.371094 24.316406 168.558594 24.234375 C 168.742188 24.152344 168.9375 24.109375 169.136719 24.105469 C 168.9375 24.109375 168.742188 24.074219 168.554688 24.003906 C 168.367188 23.929688 168.199219 23.824219 168.054688 23.683594 C 167.90625 23.542969 167.792969 23.382812 167.710938 23.195312 C 167.628906 23.011719 167.585938 22.820312 167.582031 22.617188 Z M 179.332031 32.988281 L 168.792969 22.871094 C 172.171875 19.347656 175.554688 15.824219 178.9375 12.296875 C 182.460938 15.679688 185.984375 19.0625 189.507812 22.445312 L 179.363281 33.015625 Z M 179.332031 32.988281 " fill-opacity="1" fill-rule="nonzero"/></g></g></g></svg>